<svg width="48" height="48" viewBox="0 0 48 48" fill="none" xmlns="http://www.w3.org/2000/svg">
<path d="M18 46V41.155V38.095V34L26 40L18 46Z" fill="#C7C7C7"/>
<path d="M20.4 40C12.1839 39.2513 6 35.9903 6 32.0808C6 27.6179 14.0589 24 24 24C33.9411 24 42 27.6179 42 32.0808C42 35.2536 37.9269 37.9994 32 39.3217" stroke="#C7C7C7" stroke-width="2"/>
<path d="M14.384 18.2238C16.64 18.2238 18.544 16.9598 18.544 14.7838C18.544 13.2318 17.52 12.2398 16.176 11.8718V11.7918C17.44 11.2958 18.16 10.3678 18.16 9.08776C18.16 7.05576 16.608 5.93576 14.32 5.93576C12.928 5.93576 11.792 6.49576 10.768 7.39176L11.968 8.83176C12.672 8.19176 13.36 7.79176 14.208 7.77576C15.216 7.79176 15.792 8.33576 15.792 9.26376C15.792 10.3198 15.088 11.0718 12.912 11.0718V12.7678C15.488 12.7678 16.176 13.4878 16.176 14.6558C16.176 15.7118 15.36 16.3038 14.16 16.3038C13.088 16.3038 12.224 15.7758 11.52 15.0878L10.416 16.5758C11.248 17.5198 12.512 18.2238 14.384 18.2238Z" fill="#C7C7C7"/>
<path d="M24.4299 16.4478C23.4379 16.4478 22.6379 15.6158 22.4139 13.4558C23.0059 12.5438 23.7099 12.2078 24.3499 12.2078C25.3739 12.2078 26.0299 12.8638 26.0299 14.2718C26.0299 15.7118 25.3099 16.4478 24.4299 16.4478ZM28.0139 7.27976C27.2939 6.54376 26.2379 5.93576 24.7979 5.93576C22.4139 5.93576 20.2219 7.82376 20.2219 12.2398C20.2219 16.4158 22.2219 18.2238 24.4779 18.2238C26.4939 18.2238 28.1899 16.7038 28.1899 14.2718C28.1899 11.7278 26.7819 10.5438 24.7979 10.5438C24.0299 10.5438 23.0059 11.0238 22.3659 11.8078C22.4619 8.84776 23.5819 7.82376 24.9419 7.82376C25.6299 7.82376 26.3499 8.20776 26.7659 8.68776L28.0139 7.27976Z" fill="#C7C7C7"/>
<path d="M33.5638 18.2238C35.9638 18.2238 37.5638 16.1118 37.5638 12.0318C37.5638 7.95176 35.9638 5.93576 33.5638 5.93576C31.1478 5.93576 29.5478 7.93576 29.5478 12.0318C29.5478 16.1118 31.1478 18.2238 33.5638 18.2238ZM33.5638 16.3838C32.5398 16.3838 31.7718 15.3598 31.7718 12.0318C31.7718 8.71976 32.5398 7.75976 33.5638 7.75976C34.5718 7.75976 35.3398 8.71976 35.3398 12.0318C35.3398 15.3598 34.5718 16.3838 33.5638 16.3838Z" fill="#C7C7C7"/>
<path d="M41.4976 10.6238C42.9056 10.6238 44.0256 9.58376 44.0256 8.09576C44.0256 6.60776 42.9056 5.55176 41.4976 5.55176C40.1216 5.55176 38.9856 6.60776 38.9856 8.09576C38.9856 9.58376 40.1216 10.6238 41.4976 10.6238ZM41.4976 9.45576C40.7616 9.45576 40.2496 8.89576 40.2496 8.09576C40.2496 7.27976 40.7616 6.71976 41.4976 6.71976C42.2496 6.71976 42.7616 7.27976 42.7616 8.09576C42.7616 8.89576 42.2496 9.45576 41.4976 9.45576Z" fill="#C7C7C7"/>
</svg>
