<svg width="48" height="48" viewBox="0 0 48 48" fill="none" xmlns="http://www.w3.org/2000/svg">
<path d="M18 46V41.155V38.095V34L26 40L18 46Z" fill="#9AC941"/>
<path d="M20.4 40C12.1839 39.2513 6 35.9903 6 32.0808C6 27.6179 14.0589 24 24 24C33.9411 24 42 27.6179 42 32.0808C42 35.2536 37.9269 37.9994 32 39.3217" stroke="#9AC941" stroke-width="2"/>
<path d="M14.384 18.2236C16.64 18.2236 18.544 16.9596 18.544 14.7836C18.544 13.2316 17.52 12.2396 16.176 11.8716V11.7916C17.44 11.2956 18.16 10.3676 18.16 9.08755C18.16 7.05555 16.608 5.93555 14.32 5.93555C12.928 5.93555 11.792 6.49555 10.768 7.39155L11.968 8.83155C12.672 8.19155 13.36 7.79155 14.208 7.77555C15.216 7.79155 15.792 8.33555 15.792 9.26355C15.792 10.3196 15.088 11.0716 12.912 11.0716V12.7676C15.488 12.7676 16.176 13.4876 16.176 14.6556C16.176 15.7116 15.36 16.3036 14.16 16.3036C13.088 16.3036 12.224 15.7756 11.52 15.0876L10.416 16.5756C11.248 17.5196 12.512 18.2236 14.384 18.2236Z" fill="#9AC941"/>
<path d="M24.4299 16.4476C23.4379 16.4476 22.6379 15.6156 22.4139 13.4556C23.0059 12.5436 23.7099 12.2076 24.3499 12.2076C25.3739 12.2076 26.0299 12.8636 26.0299 14.2716C26.0299 15.7116 25.3099 16.4476 24.4299 16.4476ZM28.0139 7.27955C27.2939 6.54355 26.2379 5.93555 24.7979 5.93555C22.4139 5.93555 20.2219 7.82355 20.2219 12.2396C20.2219 16.4156 22.2219 18.2236 24.4779 18.2236C26.4939 18.2236 28.1899 16.7036 28.1899 14.2716C28.1899 11.7276 26.7819 10.5436 24.7979 10.5436C24.0299 10.5436 23.0059 11.0236 22.3659 11.8076C22.4619 8.84755 23.5819 7.82355 24.9419 7.82355C25.6299 7.82355 26.3499 8.20755 26.7659 8.68755L28.0139 7.27955Z" fill="#9AC941"/>
<path d="M33.5638 18.2236C35.9638 18.2236 37.5638 16.1116 37.5638 12.0316C37.5638 7.95155 35.9638 5.93555 33.5638 5.93555C31.1478 5.93555 29.5478 7.93555 29.5478 12.0316C29.5478 16.1116 31.1478 18.2236 33.5638 18.2236ZM33.5638 16.3836C32.5398 16.3836 31.7718 15.3596 31.7718 12.0316C31.7718 8.71955 32.5398 7.75955 33.5638 7.75955C34.5718 7.75955 35.3398 8.71955 35.3398 12.0316C35.3398 15.3596 34.5718 16.3836 33.5638 16.3836Z" fill="#9AC941"/>
<path d="M41.4976 10.6248C42.9056 10.6248 44.0256 9.58473 44.0256 8.09673C44.0256 6.60873 42.9056 5.55273 41.4976 5.55273C40.1216 5.55273 38.9856 6.60873 38.9856 8.09673C38.9856 9.58473 40.1216 10.6248 41.4976 10.6248ZM41.4976 9.45673C40.7616 9.45673 40.2496 8.89673 40.2496 8.09673C40.2496 7.28073 40.7616 6.72073 41.4976 6.72073C42.2496 6.72073 42.7616 7.28073 42.7616 8.09673C42.7616 8.89673 42.2496 9.45673 41.4976 9.45673Z" fill="#9AC941"/>
</svg>
