<svg width="20" height="20" viewBox="0 0 20 20" fill="none" xmlns="http://www.w3.org/2000/svg">
<rect y="-0.00012207" width="20" height="20" rx="10" fill="#E6A935"/>
<rect x="1.25" y="1.24988" width="17.5" height="17.5" rx="8.75" stroke="white" stroke-width="0.5"/>
<path d="M10.2129 5.49988C11.3027 5.49988 12.1484 5.78699 12.75 6.36121C13.3516 6.93542 13.6855 7.58777 13.752 8.31824H12.6152C12.4863 7.76355 12.2285 7.3241 11.8418 6.99988C11.459 6.67566 10.9199 6.51355 10.2246 6.51355C9.37695 6.51355 8.69141 6.81238 8.16797 7.41003C7.64844 8.00378 7.38867 8.91589 7.38867 10.1464C7.38867 11.1542 7.62305 11.9725 8.0918 12.6014C8.56445 13.2264 9.26758 13.5389 10.2012 13.5389C11.0605 13.5389 11.7148 13.2089 12.1641 12.5487C12.4023 12.201 12.5801 11.744 12.6973 11.1776H13.834C13.7324 12.0839 13.3965 12.8436 12.8262 13.4569C12.1426 14.1952 11.2207 14.5643 10.0605 14.5643C9.06055 14.5643 8.2207 14.2616 7.54102 13.6561C6.64648 12.8553 6.19922 11.619 6.19922 9.94714C6.19922 8.67761 6.53516 7.6366 7.20703 6.8241C7.93359 5.94128 8.93555 5.49988 10.2129 5.49988Z" fill="white"/>
</svg>
