<svg width="80" height="80" viewBox="0 0 80 80" fill="none" xmlns="http://www.w3.org/2000/svg">
<path d="M40.3296 79.3508C18.4202 79.3508 0.659195 61.5875 0.659195 39.6754C0.659195 17.7633 18.4202 0 40.3296 0C62.239 0 80 17.7633 80 39.6754C80 61.5875 62.239 79.3508 40.3296 79.3508Z" fill="#2E1E13"/>
<path fill-rule="evenodd" clip-rule="evenodd" d="M39.9953 0C17.8603 0 0.000320435 17.8623 0.000320435 40C0.000320435 62.1377 17.8603 80 39.9953 80C62.1302 80 79.9902 62.1377 79.9902 40C79.9902 17.8623 62.1302 0 39.9953 0ZM55.0919 59.6244L74.2131 26.6636C75.7246 30.6886 76.7261 35.2145 76.7261 40C76.7261 47.0485 74.4635 53.8372 70.9397 59.6244H55.0919ZM72.4419 22.8889L64.6432 36.7262L45.5221 3.76536C57.3546 5.53675 67.1655 12.8263 72.4419 22.8889ZM41.5068 3.27382L49.3055 17.1111H11.5732C18.1107 8.81057 28.4224 3.27382 39.9953 3.27382C40.496 3.27382 41.006 3.27382 41.5068 3.27382ZM9.06016 20.3756H24.6575L6.04639 53.3364C4.28451 49.3114 3.53338 44.7855 3.53338 40C3.5241 32.7011 5.53638 26.1628 9.06016 20.3756ZM7.79902 57.1111L15.5977 43.2738L34.4592 76.2346C22.8864 74.4632 13.0847 67.1737 7.79902 57.1111ZM38.4838 76.4758L30.6851 62.8889H68.6678C61.8798 71.1894 51.5588 76.4758 39.9953 76.4758C39.4945 76.4758 38.9938 76.4758 38.4838 76.4758ZM28.6728 59.6244L17.3503 40L28.4224 20.3756H51.3085L62.631 40L51.3085 59.6244H28.6728Z" fill="#9AC941"/>
<path fill-rule="evenodd" clip-rule="evenodd" d="M65.9043 40.9737C62.6309 39.9999 51.3362 62.8888 51.3362 62.8888H30.3042L17.3502 39.9999L28.4223 20.3755H51.3084L65.9043 40.9737Z" fill="#9AC941"/>
<path d="M39.9505 26.3576C39.4895 26.3576 39.1158 25.4815 39.1158 24.4007C39.1158 23.32 39.4895 22.4438 39.9505 22.4438C40.4115 22.4438 40.7852 23.32 40.7852 24.4007C40.7852 25.4815 40.4115 26.3576 39.9505 26.3576Z" fill="#3A2921"/>
<path d="M39.9505 57.5563C39.4895 57.5563 39.1158 56.6802 39.1158 55.5995C39.1158 54.5187 39.4895 53.6426 39.9505 53.6426C40.4115 53.6426 40.7852 54.5187 40.7852 55.5995C40.7852 56.6802 40.4115 57.5563 39.9505 57.5563Z" fill="#3A2921"/>
<path d="M53.5902 40.0005C53.5902 39.5395 54.4663 39.1658 55.547 39.1658C56.6278 39.1658 57.5039 39.5395 57.5039 40.0005C57.5039 40.4615 56.6278 40.8352 55.547 40.8352C54.4663 40.8352 53.5902 40.4615 53.5902 40.0005Z" fill="#3A2921"/>
<path d="M22.3909 40.0005C22.3909 39.5395 23.2671 39.1658 24.3478 39.1658C25.4286 39.1658 26.3047 39.5395 26.3047 40.0005C26.3047 40.4615 25.4286 40.8352 24.3478 40.8352C23.2671 40.8352 22.3909 40.4615 22.3909 40.0005Z" fill="#3A2921"/>
<path d="M49.5955 30.3547C49.2695 30.0288 49.6248 29.145 50.389 28.3808C51.1532 27.6166 52.037 27.2613 52.3629 27.5873C52.6889 27.9132 52.3336 28.797 51.5694 29.5612C50.8052 30.3254 49.9214 30.6807 49.5955 30.3547Z" fill="#3A2921"/>
<path d="M27.5349 52.4155C27.209 52.0895 27.5642 51.2058 28.3284 50.4416C29.0926 49.6774 29.9764 49.3221 30.3024 49.6481C30.6283 49.974 30.2731 50.8578 29.5089 51.622C28.7447 52.3862 27.8609 52.7415 27.5349 52.4155Z" fill="#3A2921"/>
<path d="M49.5943 49.647C49.9202 49.321 50.804 49.6763 51.5682 50.4405C52.3324 51.2047 52.6877 52.0885 52.3617 52.4144C52.0357 52.7404 51.152 52.3851 50.3878 51.6209C49.6236 50.8567 49.2683 49.973 49.5943 49.647Z" fill="#3A2921"/>
<path d="M27.5318 27.5862C27.8577 27.2602 28.7415 27.6155 29.5057 28.3797C30.2699 29.1439 30.6252 30.0277 30.2992 30.3536C29.9732 30.6796 29.0895 30.3243 28.3253 29.5601C27.5611 28.7959 27.2058 27.9122 27.5318 27.5862Z" fill="#3A2921"/>
</svg>
