<svg width="24" height="24" viewBox="0 0 24 24" fill="none" xmlns="http://www.w3.org/2000/svg">
<path d="M13.9366 11.7876C15.0046 12.0366 15.7544 12.3382 16.1861 12.6924C16.8059 13.196 17.1158 13.849 17.1158 14.6514C17.1158 15.498 16.7754 16.1981 16.0948 16.7515C15.2592 17.4211 14.0445 17.7559 12.4507 17.7559H6.73148C6.73148 17.7559 6.21101 16.9243 6.73119 16.9243C7.25137 16.9243 7.60277 16.8773 7.78539 16.7832C7.97354 16.6836 8.10359 16.5563 8.17553 16.4014C8.253 16.2464 8.29174 15.8646 8.29174 15.2559L8.29203 8.75586C8.29203 8.14714 8.25329 7.7653 8.17582 7.61035C8.10388 7.44987 7.97383 7.32259 7.78568 7.22852C7.59753 7.13444 7.24613 7.0874 6.73148 7.0874V6.5H12.127C13.4164 6.5 14.3295 6.61621 14.8662 6.84863C15.403 7.07552 15.8264 7.41862 16.1363 7.87793C16.4462 8.33171 16.6011 8.81592 16.6011 9.33057C16.6011 9.87288 16.4047 10.3571 16.0118 10.7832C15.6189 11.2038 14.9271 11.5386 13.9366 11.7876ZM10.9151 11.5635C11.7009 11.5635 12.2792 11.4749 12.6499 11.2979C13.0262 11.1208 13.314 10.8717 13.5132 10.5508C13.7124 10.2298 13.812 9.82031 13.812 9.32227C13.812 8.82422 13.7124 8.41748 13.5132 8.10205C13.3195 7.78109 13.0401 7.5376 12.6748 7.37158C12.3096 7.20557 11.723 7.12533 10.9151 7.13086V11.5635ZM10.9151 12.2109V15.8218L10.9068 16.2368C10.9068 16.5356 10.9815 16.7625 11.1309 16.9175C11.2858 17.0669 11.5127 17.1416 11.8116 17.1416C12.2543 17.1416 12.661 17.0448 13.0318 16.8511C13.4081 16.6519 13.6958 16.3669 13.8951 15.9961C14.0943 15.6198 14.1939 15.202 14.1939 14.7427C14.1939 14.217 14.0721 13.7466 13.8286 13.3315C13.5852 12.911 13.2504 12.6177 12.8243 12.4517C12.3981 12.2856 11.7618 12.2054 10.9151 12.2109Z" fill="#12121D"/>
</svg>
