<svg width="24" height="24" viewBox="0 0 24 24" fill="none" xmlns="http://www.w3.org/2000/svg">
<g clip-path="url(#clip0)">
<path d="M5.70696 5.70696C6.09748 5.31643 6.73064 5.31643 7.12117 5.70696L18.4349 17.0207C18.8254 17.4112 18.8254 18.0444 18.4349 18.4349C18.0444 18.8254 17.4112 18.8254 17.0207 18.4349L5.70696 7.12117C5.31643 6.73065 5.31643 6.09748 5.70696 5.70696Z" fill="white"/>
<path d="M18.4349 5.70696C18.8254 6.09748 18.8254 6.73064 18.4349 7.12117L7.12117 18.4349C6.73065 18.8254 6.09748 18.8254 5.70696 18.4349C5.31643 18.0444 5.31643 17.4112 5.70696 17.0207L17.0207 5.70696C17.4112 5.31643 18.0444 5.31643 18.4349 5.70696Z" fill="white"/>
</g>
<defs>
<clipPath id="clip0">
<rect width="24" height="24" fill="white"/>
</clipPath>
</defs>
</svg>
