<svg width="24" height="24" viewBox="0 0 24 24" fill="none" xmlns="http://www.w3.org/2000/svg">
<path fill-rule="evenodd" clip-rule="evenodd" d="M16.9497 8.36396C17.3403 7.97344 17.3403 7.34027 16.9497 6.94975C16.5592 6.55922 15.9261 6.55922 15.5355 6.94975L12 10.4853L8.46447 6.94975C8.07394 6.55922 7.44078 6.55922 7.05025 6.94975C6.65973 7.34027 6.65973 7.97344 7.05025 8.36396L10.5858 11.8995L7.05025 15.435C6.65973 15.8256 6.65973 16.4587 7.05025 16.8492C7.44078 17.2398 8.07394 17.2398 8.46447 16.8492L12 13.3137L15.5355 16.8492C15.9261 17.2398 16.5592 17.2398 16.9497 16.8492C17.3403 16.4587 17.3403 15.8256 16.9497 15.435L13.4142 11.8995L16.9497 8.36396Z" fill="#A8A8A8"/>
</svg>
