<svg width="24" height="24" viewBox="0 0 24 24" fill="none" xmlns="http://www.w3.org/2000/svg">
<path d="M4 6C4 5.44772 4.55103 5 5.23077 5L18.7692 5C19.449 5 20 5.44772 20 6C20 6.55229 19.449 7 18.7692 7L5.23077 7C4.55103 7 4 6.55228 4 6Z" fill="#43A5FF"/>
<path d="M4 12C4 11.4477 4.55103 11 5.23077 11L18.7692 11C19.449 11 20 11.4477 20 12C20 12.5522 19.449 13 18.7692 13L5.23077 13C4.55103 13 4 12.5522 4 12Z" fill="#43A5FF"/>
<path d="M4 18C4 17.4477 4.55103 17 5.23077 17L18.7692 17C19.449 17 20 17.4477 20 18C20 18.5522 19.449 19 18.7692 19L5.23077 19C4.55103 19 4 18.5522 4 18Z" fill="#43A5FF"/>
</svg>
