<svg width="24" height="24" viewBox="0 0 24 24" fill="none" xmlns="http://www.w3.org/2000/svg">
<path d="M11.3639 16.2929C10.9734 15.9024 10.9702 15.2724 11.3568 14.8858L16.9568 9.28579C17.3434 8.89919 17.9734 8.90237 18.3639 9.29289C18.7545 9.68342 18.7576 10.3134 18.371 10.7L12.771 16.3C12.3844 16.6866 11.7545 16.6834 11.3639 16.2929Z" fill="#A8A8A8"/>
<path d="M12.771 16.3C12.3844 16.6866 11.7545 16.6834 11.3639 16.2929L5.70708 10.636C5.31656 10.2455 5.31338 9.61553 5.69998 9.22893C6.08658 8.84233 6.71656 8.84552 7.10708 9.23604L12.7639 14.8929C13.1545 15.2834 13.1576 15.9134 12.771 16.3Z" fill="#A8A8A8"/>
</svg>
