<svg width="24" height="24" viewBox="0 0 24 24" fill="none" xmlns="http://www.w3.org/2000/svg">
<path d="M4 6C4 5.44772 4.55103 5 5.23077 5H18.7692C19.449 5 20 5.44772 20 6C20 6.55228 19.449 7 18.7692 7H5.23077C4.55103 7 4 6.55228 4 6Z" fill="#A8A8A8"/>
<path d="M4 12C4 11.4477 4.55103 11 5.23077 11H18.7692C19.449 11 20 11.4477 20 12C20 12.5522 19.449 13 18.7692 13H5.23077C4.55103 13 4 12.5522 4 12Z" fill="#A8A8A8"/>
<path d="M4 18C4 17.4477 4.55103 17 5.23077 17H18.7692C19.449 17 20 17.4477 20 18C20 18.5522 19.449 19 18.7692 19H5.23077C4.55103 19 4 18.5522 4 18Z" fill="#A8A8A8"/>
</svg>
