<svg width="24" height="24" viewBox="0 0 24 24" fill="none" xmlns="http://www.w3.org/2000/svg">
<path d="M12.6361 7.70711C13.0266 8.09763 13.0298 8.72761 12.6432 9.11421L7.04317 14.7142C6.65657 15.1008 6.02659 15.0976 5.63606 14.7071C5.24554 14.3166 5.24236 13.6866 5.62895 13.3L11.229 7.7C11.6156 7.3134 12.2455 7.31658 12.6361 7.70711Z" fill="#A8A8A8"/>
<path d="M11.229 7.7C11.6156 7.3134 12.2455 7.31658 12.6361 7.70711L18.2929 13.364C18.6834 13.7545 18.6866 14.3845 18.3 14.7711C17.9134 15.1577 17.2834 15.1545 16.8929 14.764L11.2361 9.10711C10.8455 8.71658 10.8424 8.0866 11.229 7.7Z" fill="#A8A8A8"/>
</svg>
