<svg width="24" height="24" viewBox="0 0 24 24" fill="none" xmlns="http://www.w3.org/2000/svg">
<path fill-rule="evenodd" clip-rule="evenodd" d="M3.3999 4.4999C3.3999 4.16853 3.66853 3.8999 3.9999 3.8999H20.9999C21.3313 3.8999 21.5999 4.16853 21.5999 4.4999C21.5999 4.83127 21.3313 5.0999 20.9999 5.0999H3.9999C3.66853 5.0999 3.3999 4.83127 3.3999 4.4999ZM9.42417 5.57564C9.18985 5.34132 8.80995 5.34132 8.57564 5.57564L5.57564 8.57564C5.34132 8.80995 5.34132 9.18985 5.57564 9.42417C5.80995 9.65848 6.18985 9.65848 6.42417 9.42417L8.3999 7.44843V14.9999C8.3999 15.3313 8.66853 15.5999 8.9999 15.5999C9.33127 15.5999 9.5999 15.3313 9.5999 14.9999V7.44843L11.5756 9.42417C11.81 9.65848 12.1899 9.65848 12.4242 9.42417C12.6585 9.18985 12.6585 8.80995 12.4242 8.57564L9.42417 5.57564ZM15.5514 18.3999L12.5756 15.4242C12.3413 15.1899 12.3413 14.81 12.5756 14.5756C12.81 14.3413 13.1899 14.3413 13.4242 14.5756L15.3999 16.5514V7.9999C15.3999 7.66853 15.6685 7.3999 15.9999 7.3999C16.3313 7.3999 16.5999 7.66853 16.5999 7.9999V16.5514L18.5756 14.5756C18.81 14.3413 19.1899 14.3413 19.4242 14.5756C19.6585 14.81 19.6585 15.1899 19.4242 15.4242L16.4484 18.3999H20.9999C21.3313 18.3999 21.5999 18.6685 21.5999 18.9999C21.5999 19.3313 21.3313 19.5999 20.9999 19.5999H3.9999C3.66853 19.5999 3.3999 19.3313 3.3999 18.9999C3.3999 18.6685 3.66853 18.3999 3.9999 18.3999H15.5514Z" fill="black"/>
</svg>
