<svg width="24" height="24" viewBox="0 0 24 24" fill="none" xmlns="http://www.w3.org/2000/svg">
<path fill-rule="evenodd" clip-rule="evenodd" d="M0 0.5C0 0.223858 0.223858 0 0.5 0H23.5C23.7761 0 24 0.223858 24 0.5C24 0.776142 23.7761 1 23.5 1H0.5C0.223857 1 0 0.776142 0 0.5ZM1.25 6C1.25 5.0335 2.0335 4.25 3 4.25H21C21.9665 4.25 22.75 5.0335 22.75 6V17C22.75 17.9665 21.9665 18.75 21 18.75H3C2.0335 18.75 1.25 17.9665 1.25 17V6ZM3 5.75C2.86193 5.75 2.75 5.86193 2.75 6V17C2.75 17.1381 2.86193 17.25 3 17.25H21C21.1381 17.25 21.25 17.1381 21.25 17V6C21.25 5.86193 21.1381 5.75 21 5.75H3ZM0.5 23C0.223858 23 0 23.2239 0 23.5C0 23.7761 0.223857 24 0.5 24H23.5C23.7761 24 24 23.7761 24 23.5C24 23.2239 23.7761 23 23.5 23H0.5Z" fill="#A8A8A8"/>
</svg>
