<svg width="24" height="24" viewBox="0 0 24 24" fill="none" xmlns="http://www.w3.org/2000/svg">
<path fill-rule="evenodd" clip-rule="evenodd" d="M4 3H20C20.5523 3 21 3.44772 21 4V16.1849L18.5783 13.4605C18.0049 12.8154 17.0068 12.7861 16.3965 13.3964L13.9111 15.8818L9.64794 10.1977C9.07217 9.42997 7.93357 9.39288 7.30906 10.1215L3 15.1487V4C3 3.44772 3.44772 3 4 3ZM17.7497 21L14.5172 16.69L17.1036 14.1035C17.307 13.9001 17.6398 13.9098 17.8309 14.1249L21 17.6901V20C21 20.5523 20.5523 21 20 21H17.7497ZM20 22H17.5204C17.507 22.0005 17.4936 22.0005 17.4803 22H4C2.89543 22 2 21.1046 2 20V16.5064V16.4939V4C2 2.89543 2.89543 2 4 2H20C21.1046 2 22 2.89543 22 4V20C22 21.1046 21.1046 22 20 22ZM8.84794 10.7977L16.4997 21H4C3.44772 21 3 20.5523 3 20V16.6853L8.06831 10.7723C8.27648 10.5294 8.65602 10.5418 8.84794 10.7977ZM17 8.25C17 9.2165 16.2165 10 15.25 10C14.2835 10 13.5 9.2165 13.5 8.25C13.5 7.2835 14.2835 6.5 15.25 6.5C16.2165 6.5 17 7.2835 17 8.25ZM18 8.25C18 9.76878 16.7688 11 15.25 11C13.7312 11 12.5 9.76878 12.5 8.25C12.5 6.73122 13.7312 5.5 15.25 5.5C16.7688 5.5 18 6.73122 18 8.25Z" fill="#A8A8A8"/>
</svg>
