<svg width="24" height="24" viewBox="0 0 24 24" fill="none" xmlns="http://www.w3.org/2000/svg">
<path fill-rule="evenodd" clip-rule="evenodd" d="M2 3L2.00001 3.00392L2 5C2 5.55229 2.44771 6 3 6C3.55228 6 3.99999 5.55229 3.99999 5.00001L3.99999 4H11.25L11.25 20H9C8.44772 20 8 20.4477 8 21C8 21.5523 8.44772 22 9 22H15C15.5523 22 16 21.5523 16 21C16 20.4477 15.5523 20 15 20H12.75L12.75 4H20L20 5C20 5.55229 20.4477 6 21 6C21.5523 6 22 5.55229 22 5.00001L22 3.00255L22 3L22 2.99745C22 2.44658 21.5509 2 21 2H20H4H3C2.44989 2 2.00001 2.44596 2.00001 2.99607L2 3Z" fill="#A8A8A8"/>
</svg>
