<svg width="24" height="24" viewBox="0 0 24 24" fill="none" xmlns="http://www.w3.org/2000/svg">
<path fill-rule="evenodd" clip-rule="evenodd" d="M9.81335 23.8012L23.6717 9.19951C22.4103 3.9229 17.6633 0 12.0001 0C5.37264 0 0 5.37257 0 12C0 17.8806 4.23002 22.7732 9.81335 23.8012ZM18.0002 7.49999C19.3382 7.49999 20.6177 7.75024 21.7945 8.20648C20.2735 4.28191 16.4602 1.5 12.0001 1.5C6.20108 1.5 1.50002 6.201 1.50002 12C1.50002 16.6617 4.53923 20.6162 8.74464 21.986C8.06289 20.7436 7.50008 19.3727 7.50008 18C7.50008 12.201 12.2011 7.49999 18.0002 7.49999ZM18.0002 8.99998C13.0296 8.99998 9.0001 13.0294 9.0001 18C9.0001 18.7373 9.23156 19.5498 9.63562 20.4277C9.77321 20.7266 9.9254 21.022 10.087 21.314L21.1792 9.57706C20.1916 9.20411 19.1206 8.99998 18.0002 8.99998ZM23.9909 11.9064C23.9859 11.7842 23.9791 11.6625 23.9705 11.5414C23.941 11.1282 23.5821 10.8172 23.169 10.8467C22.7558 10.8762 22.4448 11.235 22.4743 11.6482C22.4818 11.7539 22.4878 11.8602 22.4921 11.9669C22.4964 12.0737 22.499 12.1801 22.5 12.2861C22.5039 12.7003 22.8429 13.0329 23.2571 13.029C23.6713 13.0251 24.0039 12.6861 24 12.2719C23.9988 12.1505 23.9958 12.0286 23.9909 11.9064ZM23.6632 15.1665C23.7624 14.7643 23.5169 14.3579 23.1147 14.2586C22.7126 14.1594 22.3061 14.4049 22.2069 14.807C22.1559 15.0135 22.0986 15.2175 22.0351 15.4189C21.9106 15.814 22.13 16.2352 22.525 16.3597C22.9201 16.4842 23.3413 16.2649 23.4658 15.8698C23.5387 15.6383 23.6046 15.4038 23.6632 15.1665ZM22.2465 18.5174C22.4656 18.1659 22.3583 17.7033 22.0068 17.4842C21.6553 17.265 21.1927 17.3723 20.9736 17.7239C20.8612 17.9041 20.7434 18.0805 20.6202 18.253C20.3795 18.5902 20.4576 19.0585 20.7947 19.2992C21.1318 19.5399 21.6002 19.4618 21.8409 19.1247C21.9823 18.9267 22.1176 18.7242 22.2465 18.5174ZM19.8657 21.2661C20.1823 20.999 20.2224 20.5259 19.9553 20.2093C19.6883 19.8926 19.2151 19.8525 18.8985 20.1196C18.7364 20.2563 18.57 20.388 18.3995 20.5145C18.0668 20.7612 17.9971 21.231 18.2438 21.5637C18.4906 21.8964 18.9603 21.9661 19.293 21.7193C19.4888 21.5741 19.6798 21.423 19.8657 21.2661ZM16.7523 23.148C17.1361 22.9921 17.3207 22.5546 17.1648 22.1708C17.0089 21.7871 16.5714 21.6024 16.1876 21.7584C15.992 21.8379 15.7932 21.9114 15.5915 21.9789C15.1987 22.1102 14.9867 22.5352 15.1181 22.928C15.2494 23.3208 15.6743 23.5328 16.0672 23.4015C16.299 23.324 16.5275 23.2394 16.7523 23.148ZM13.2092 23.9705C13.6223 23.941 13.9334 23.5821 13.9039 23.169C13.8744 22.7558 13.5155 22.4448 13.1024 22.4743C12.9966 22.4818 12.8904 22.4878 12.7836 22.4921C12.6769 22.4964 12.5705 22.499 12.4645 22.5C12.0503 22.5039 11.7177 22.8429 11.7216 23.2571C11.7255 23.6713 12.0644 24.0039 12.4786 24C12.6001 23.9988 12.7219 23.9958 12.8441 23.9909C12.9663 23.9859 13.088 23.9791 13.2092 23.9705Z" fill="#A8A8A8"/>
</svg>
