<svg width="24" height="24" viewBox="0 0 24 24" fill="none" xmlns="http://www.w3.org/2000/svg">
<path fill-rule="evenodd" clip-rule="evenodd" d="M11.1111 5.18519H13.4815V6.37037H11.1111V5.18519ZM14.6667 5.18519V6.37037H18.2222H20C20.3273 6.37037 20.5926 6.63568 20.5926 6.96296C20.5926 7.29024 20.3273 7.55556 20 7.55556H18.2222V18.8148C18.2222 19.4694 17.6916 20 17.037 20H7.55556C6.901 20 6.37037 19.4694 6.37037 18.8148V7.55556H4.59259C4.26531 7.55556 4 7.29024 4 6.96296C4 6.63568 4.26531 6.37037 4.59259 6.37037H6.37037H9.92593V5.18519C9.92593 4.53063 10.4566 4 11.1111 4H13.4815C14.136 4 14.6667 4.53063 14.6667 5.18519ZM14.6667 7.55556H17.037V18.8148H7.55556V7.55556H9.92593H14.6667ZM12.8889 9.33333C12.8889 9.00605 12.6236 8.74074 12.2963 8.74074C11.969 8.74074 11.7037 9.00605 11.7037 9.33333V17.037C11.7037 17.3643 11.969 17.6296 12.2963 17.6296C12.6236 17.6296 12.8889 17.3643 12.8889 17.037V9.33333ZM9.33333 9.92593C9.66061 9.92593 9.92593 10.1912 9.92593 10.5185V15.8519C9.92593 16.1791 9.66061 16.4444 9.33333 16.4444C9.00605 16.4444 8.74074 16.1791 8.74074 15.8519V10.5185C8.74074 10.1912 9.00605 9.92593 9.33333 9.92593ZM15.8519 10.5185C15.8519 10.1912 15.5865 9.92593 15.2593 9.92593C14.932 9.92593 14.6667 10.1912 14.6667 10.5185V15.8519C14.6667 16.1791 14.932 16.4444 15.2593 16.4444C15.5865 16.4444 15.8519 16.1791 15.8519 15.8519V10.5185Z" fill="black"/>
</svg>
