<svg width="24" height="24" viewBox="0 0 24 24" fill="none" xmlns="http://www.w3.org/2000/svg">
<path d="M10.4533 6.80015L10.5603 6.5H17L16.8735 6.80015C16.2899 6.80015 15.8424 6.90831 15.5311 7.12463C15.2263 7.34095 14.9572 7.79253 14.7237 8.47935L12.3113 15.5206C12.1362 16.0182 12.0486 16.3508 12.0486 16.5184C12.0486 16.7131 12.1394 16.8646 12.321 16.9727C12.5545 17.1133 12.9955 17.189 13.644 17.1999L13.5467 17.5H7L7.107 17.1999C7.762 17.1999 8.24189 17.0971 8.54669 16.8916C8.85149 16.6807 9.12711 16.2237 9.37354 15.5206L11.8054 8.47935C11.9546 8.04671 12.0292 7.71952 12.0292 7.49779C12.0292 7.29769 11.9384 7.14086 11.7568 7.02729C11.5752 6.91372 11.1407 6.838 10.4533 6.80015Z" fill="#96C60F"/>
</svg>
