<svg width="24" height="24" viewBox="0 0 24 24" fill="none" xmlns="http://www.w3.org/2000/svg">
<path d="M16.2464 12.7536C15.8303 13.1697 15.1587 13.1729 14.7464 12.7607L8.77486 6.78907C8.36261 6.37682 8.36579 5.70525 8.78197 5.28907C9.19814 4.8729 9.86972 4.86972 10.282 5.28197L16.2536 11.2536C16.6658 11.6658 16.6626 12.3374 16.2464 12.7536Z" fill="white"/>
<path d="M16.2536 11.2536C16.6658 11.6658 16.6626 12.3374 16.2464 12.7536L10.218 18.782C9.80186 19.1981 9.13028 19.2013 8.71803 18.7891C8.30578 18.3768 8.30896 17.7052 8.72514 17.2891L14.7536 11.2607C15.1697 10.8445 15.8413 10.8413 16.2536 11.2536Z" fill="white"/>
</svg>
