<svg width="24" height="24" viewBox="0 0 24 24" fill="none" xmlns="http://www.w3.org/2000/svg">
<path fill-rule="evenodd" clip-rule="evenodd" d="M6.75 18C7.16421 18 7.5 17.6642 7.5 17.25L7.5 6.75C7.5 6.33579 7.16421 6 6.75 6C6.33579 6 6 6.33579 6 6.75V17.25C6 17.6642 6.33579 18 6.75 18ZM9.75 15.25V13.75H14.75V15.25H9.75ZM9.5 16.5C8.94772 16.5 8.5 16.0523 8.5 15.5V13.5C8.5 12.9477 8.94772 12.5 9.5 12.5H15C15.5523 12.5 16 12.9477 16 13.5V15.5C16 16.0523 15.5523 16.5 15 16.5H9.5ZM9.75 8.75V10.25H16.75V8.75H9.75ZM8.5 10.5C8.5 11.0523 8.94772 11.5 9.5 11.5H17C17.5523 11.5 18 11.0523 18 10.5V8.5C18 7.94772 17.5523 7.5 17 7.5H9.5C8.94772 7.5 8.5 7.94772 8.5 8.5V10.5Z" fill="black"/>
</svg>
