<svg width="24" height="24" viewBox="0 0 24 24" fill="none" xmlns="http://www.w3.org/2000/svg">
<path fill-rule="evenodd" clip-rule="evenodd" d="M11.25 17.25C11.25 17.6642 11.5858 18 12 18C12.4142 18 12.75 17.6642 12.75 17.25V16H15C15.5523 16 16 15.5523 16 15V13C16 12.4477 15.5523 12 15 12H12.75V11.5H17C17.5523 11.5 18 11.0523 18 10.5V8.5C18 7.94772 17.5523 7.5 17 7.5H12.75V6.75C12.75 6.33579 12.4142 6 12 6C11.5858 6 11.25 6.33579 11.25 6.75V7.5H7C6.44772 7.5 6 7.94772 6 8.5V10.5C6 11.0523 6.44771 11.5 7 11.5H11.25V12H9C8.44772 12 8 12.4477 8 13V15C8 15.5523 8.44772 16 9 16H11.25V17.25ZM12 8.75H16.75V10.25H12H7.25V8.75H12ZM12 14.75H9.25V13.25H12H14.75V14.75H12Z" fill="#96C60F"/>
</svg>
