<svg width="24" height="24" viewBox="0 0 24 24" fill="none" xmlns="http://www.w3.org/2000/svg">
<path fill-rule="evenodd" clip-rule="evenodd" d="M17.25 18C16.8358 18 16.5 17.6642 16.5 17.25L16.5 6.75C16.5 6.33579 16.8358 6 17.25 6C17.6642 6 18 6.33579 18 6.75L18 17.25C18 17.6642 17.6642 18 17.25 18ZM14.25 15.25V13.75H9.25V15.25H14.25ZM14.5 16.5C15.0523 16.5 15.5 16.0523 15.5 15.5V13.5C15.5 12.9477 15.0523 12.5 14.5 12.5H9C8.44772 12.5 8 12.9477 8 13.5V15.5C8 16.0523 8.44772 16.5 9 16.5H14.5ZM14.25 8.75V10.25H7.25V8.75H14.25ZM15.5 10.5C15.5 11.0523 15.0523 11.5 14.5 11.5H7C6.44772 11.5 6 11.0523 6 10.5V8.5C6 7.94772 6.44771 7.5 7 7.5H14.5C15.0523 7.5 15.5 7.94772 15.5 8.5V10.5Z" fill="#96C60F"/>
</svg>
