<svg width="20" height="20" viewBox="0 0 20 20" fill="none" xmlns="http://www.w3.org/2000/svg">
<circle cx="10" cy="10" r="10" fill="#A8A8A8"/>
<path d="M10.5625 12.8125H9.125V11.9375C9.125 11.401 9.27344 10.9375 9.57031 10.5469C9.7526 10.3125 10.0312 10.0182 10.4062 9.66406C10.4792 9.60156 10.6068 9.48958 10.7891 9.32812C11.5755 8.625 11.974 7.92188 11.9844 7.21875C11.9844 6.46875 11.6589 5.9349 11.0078 5.61719L10.5156 5.45312C10.3333 5.41146 10.1406 5.39062 9.9375 5.39062C9.0625 5.39062 8.46615 5.70052 8.14844 6.32031C7.96615 6.6849 7.875 7.20833 7.875 7.89062H6.51562C6.51562 6.76562 6.75521 5.89323 7.23438 5.27344C7.71875 4.65365 8.4401 4.28906 9.39844 4.17969C9.60156 4.15365 9.8099 4.14062 10.0234 4.14062C11.3672 4.14062 12.3359 4.58333 12.9297 5.46875L13.1875 5.95312C13.349 6.33854 13.4297 6.76042 13.4297 7.21875C13.4297 7.96354 13.1562 8.65104 12.6094 9.28125C12.4062 9.52604 12.1458 9.79167 11.8281 10.0781C11.1562 10.6979 10.7656 11.151 10.6562 11.4375C10.5938 11.599 10.5625 11.8073 10.5625 12.0625V12.8125ZM10.5625 14.3359V16H9.125V14.3359H10.5625Z" fill="white"/>
</svg>
