<svg width="24" height="24" viewBox="0 0 24 24" fill="none" xmlns="http://www.w3.org/2000/svg">
<path fill-rule="evenodd" clip-rule="evenodd" d="M15.1968 6.48633V10.2383H14.8564C14.696 9.29753 14.3003 8.54216 13.6694 7.97217C13.0441 7.39665 12.3662 7.10889 11.6357 7.10889C11.0713 7.10889 10.623 7.26107 10.291 7.56543C9.96452 7.86426 9.80127 8.21012 9.80127 8.60303C9.80127 8.85205 9.85938 9.07341 9.97559 9.26709C10.1361 9.52718 10.3934 9.78451 10.7476 10.0391C11.0057 10.2203 11.5992 10.5406 12.5281 11H17V11.5H7V11H8.28067C8.09909 10.6083 8.0083 10.1829 8.0083 9.72363C8.0083 8.82715 8.33757 8.06348 8.99609 7.43262C9.65462 6.80176 10.4847 6.48633 11.4863 6.48633C11.8516 6.48633 12.2057 6.5306 12.5488 6.61914C12.8089 6.68555 13.1243 6.81006 13.4951 6.99268C13.8714 7.16976 14.1343 7.2583 14.2837 7.2583C14.4276 7.2583 14.541 7.21403 14.624 7.12549C14.707 7.03695 14.7845 6.82389 14.8564 6.48633H15.1968ZM10.3911 13H15.3289C15.7057 13.5378 15.894 14.1446 15.894 14.8203C15.894 15.7611 15.526 16.5718 14.79 17.2524C14.0596 17.9276 13.1299 18.2651 12.001 18.2651C11.6468 18.2651 11.312 18.2292 10.9966 18.1572C10.6812 18.0853 10.2855 17.9497 9.80957 17.7505C9.54395 17.6398 9.32536 17.5845 9.15381 17.5845C9.00993 17.5845 8.85775 17.6398 8.69727 17.7505C8.53678 17.8612 8.40674 18.0299 8.30713 18.2568H8V14.0068H8.30713C8.55062 15.2021 9.01823 16.1152 9.70996 16.7461C10.4072 17.3714 11.1571 17.6841 11.9595 17.6841C12.5793 17.6841 13.0718 17.5153 13.437 17.1777C13.8078 16.8402 13.9932 16.4473 13.9932 15.999C13.9932 15.7334 13.9212 15.4761 13.7773 15.2271C13.639 14.978 13.4259 14.7428 13.1382 14.5215C12.8504 14.2946 12.3413 14.0013 11.6108 13.6416C11.1445 13.4122 10.738 13.1984 10.3911 13Z" fill="#96C60F"/>
</svg>
