<svg width="24" height="24" viewBox="0 0 24 24" fill="none" xmlns="http://www.w3.org/2000/svg">
<path d="M6.5 6H11.9688V6.28906H11.6953C11.2839 6.28906 11 6.33333 10.8438 6.42188C10.6927 6.50521 10.5833 6.6224 10.5156 6.77344C10.4531 6.92448 10.4219 7.30208 10.4219 7.90625V13.0938C10.4219 14.0417 10.4922 14.6693 10.6328 14.9766C10.7786 15.2839 11.0156 15.5391 11.3438 15.7422C11.6719 15.9453 12.0859 16.0469 12.5859 16.0469C13.1589 16.0469 13.6458 15.9193 14.0469 15.6641C14.4531 15.4036 14.7552 15.0469 14.9531 14.5938C15.1562 14.1406 15.2578 13.3516 15.2578 12.2266V7.90625C15.2578 7.43229 15.2083 7.09375 15.1094 6.89062C15.0104 6.6875 14.8854 6.54688 14.7344 6.46875C14.5 6.34896 14.1693 6.28906 13.7422 6.28906V6H17.4062V6.28906H17.1875C16.8906 6.28906 16.6432 6.34896 16.4453 6.46875C16.2474 6.58854 16.1042 6.76823 16.0156 7.00781C15.9479 7.17448 15.9141 7.47396 15.9141 7.90625V11.9297C15.9141 13.1745 15.8307 14.0729 15.6641 14.625C15.5026 15.1771 15.1042 15.6849 14.4688 16.1484C13.8333 16.612 12.9661 16.8438 11.8672 16.8438C10.9505 16.8438 10.2422 16.7214 9.74219 16.4766C9.0599 16.1432 8.57812 15.7161 8.29688 15.1953C8.01562 14.6745 7.875 13.974 7.875 13.0938V7.90625C7.875 7.29688 7.84115 6.91927 7.77344 6.77344C7.70573 6.6224 7.58854 6.5026 7.42188 6.41406C7.25521 6.32552 6.94792 6.28385 6.5 6.28906V6Z" fill="#96C60F"/>
<rect x="6.5" y="18" width="11" height="0.5" fill="#96C60F"/>
</svg>
