<svg width="95" height="89" viewBox="0 0 95 89" fill="none" xmlns="http://www.w3.org/2000/svg">
<path fill-rule="evenodd" clip-rule="evenodd" d="M22.935 20.13C23.881 18.194 24.354 15.906 24.354 13.266C24.354 10.824 23.947 8.701 23.133 6.897C22.341 5.071 21.12 3.663 19.47 2.673C17.82 1.661 15.719 1.155 13.167 1.155C10.593 1.155 8.47 1.661 6.798 2.673C5.148 3.663 3.916 5.06 3.102 6.864C2.31 8.668 1.914 10.791 1.914 13.233C1.914 15.675 2.31 17.809 3.102 19.635C3.916 21.461 5.148 22.88 6.798 23.892C8.47 24.904 10.582 25.41 13.134 25.41H13.497L17.82 30.69H24.222L18.546 24.354C20.526 23.452 21.989 22.044 22.935 20.13ZM8.58 19.107C7.634 17.677 7.161 15.73 7.161 13.266C7.161 10.78 7.634 8.833 8.58 7.425C9.526 6.017 11.055 5.313 13.167 5.313C15.279 5.313 16.797 6.017 17.721 7.425C18.645 8.833 19.107 10.78 19.107 13.266C19.107 15.73 18.645 17.677 17.721 19.107C16.797 20.515 15.268 21.219 13.134 21.219C11.044 21.219 9.526 20.515 8.58 19.107ZM45.3717 25.08V7.062H40.4546V15.543C40.4546 17.457 40.1796 18.931 39.6297 19.965C39.0797 20.977 38.0566 21.483 36.5606 21.483C35.5486 21.483 34.8116 21.153 34.3496 20.493C33.8876 19.833 33.6567 18.865 33.6567 17.589V7.062H28.7396V18.81C28.7396 21.12 29.3226 22.803 30.4886 23.859C31.6546 24.893 33.2057 25.41 35.1416 25.41C36.2636 25.41 37.3196 25.201 38.3097 24.783C39.3216 24.365 40.1136 23.694 40.6856 22.77H40.9496L41.6096 25.08H45.3717ZM54.8831 0.528001C54.3551 0.176001 53.7281 0 53.0021 0C52.2541 0 51.6161 0.176001 51.0881 0.528001C50.5821 0.858001 50.3291 1.485 50.3291 2.409C50.3291 3.311 50.5821 3.938 51.0881 4.29C51.6161 4.642 52.2541 4.818 53.0021 4.818C53.7281 4.818 54.3551 4.642 54.8831 4.29C55.4111 3.938 55.6751 3.311 55.6751 2.409C55.6751 1.485 55.4111 0.858001 54.8831 0.528001ZM55.4441 25.08V7.062H50.5271V25.08H55.4441ZM58.8988 25.08H73.1218V21.318H64.7068L72.8248 10.263V7.062H59.3938V10.824H67.2478L58.8988 22.176V25.08ZM41.9528 70.08H47.6288L39.3458 56.946L47.5628 46.518H42.0188L35.6498 54.537L34.6598 55.923L33.6698 57.309V46.518H28.6868V70.08H33.6698V61.665L35.7818 60.147L41.9528 70.08ZM54.5609 45.528C54.0329 45.176 53.4059 45 52.6799 45C51.9319 45 51.2939 45.176 50.7659 45.528C50.2599 45.858 50.0069 46.485 50.0069 47.409C50.0069 48.311 50.2599 48.938 50.7659 49.29C51.2939 49.642 51.9319 49.818 52.6799 49.818C53.4059 49.818 54.0329 49.642 54.5609 49.29C55.0889 48.938 55.3529 48.311 55.3529 47.409C55.3529 46.485 55.0889 45.858 54.5609 45.528ZM55.1219 70.08V52.062H50.2049V70.08H55.1219ZM61.0515 68.067C62.3275 69.629 63.9665 70.41 65.9685 70.41C67.2665 70.41 68.3225 70.157 69.1365 69.651C69.9505 69.123 70.5995 68.485 71.0835 67.737H71.2815L72.2385 70.08H76.0005V45H71.0835V50.775C71.0835 51.479 71.1275 52.172 71.2155 52.854C71.3036 53.514 71.3805 54.02 71.4465 54.372H71.2815C70.7975 53.624 70.1376 52.997 69.3015 52.491C68.4655 51.985 67.3985 51.732 66.1005 51.732C64.0325 51.732 62.3605 52.524 61.0845 54.108C59.8085 55.692 59.1705 58.024 59.1705 61.104C59.1705 64.162 59.7975 66.483 61.0515 68.067ZM70.5555 65.295C70.0055 66.087 69.0485 66.483 67.6845 66.483C66.5625 66.483 65.6936 66.043 65.0775 65.163C64.4615 64.261 64.1535 62.93 64.1535 61.17C64.1535 59.41 64.4615 58.068 65.0775 57.144C65.6936 56.198 66.5406 55.725 67.6185 55.725C69.0705 55.725 70.0605 56.187 70.5885 57.111C71.1385 58.035 71.4135 59.377 71.4135 61.137V61.665C71.3915 63.271 71.1055 64.481 70.5555 65.295ZM91.7684 68.958C93.0664 67.968 93.7154 66.56 93.7154 64.734C93.7154 63.656 93.5064 62.787 93.0884 62.127C92.6924 61.445 92.1204 60.884 91.3724 60.444C90.6244 59.982 89.7334 59.542 88.6994 59.124C87.6434 58.684 86.8404 58.332 86.2904 58.068C85.7624 57.804 85.3994 57.562 85.2014 57.342C85.0254 57.1 84.9374 56.836 84.9374 56.55C84.9374 55.758 85.6634 55.362 87.1154 55.362C87.9294 55.362 88.7324 55.494 89.5244 55.758C90.3164 56 91.1524 56.308 92.0324 56.682L93.5174 53.151C92.4394 52.645 91.3944 52.282 90.3824 52.062C89.3704 51.842 88.3034 51.732 87.1814 51.732C85.0254 51.732 83.2984 52.15 82.0004 52.986C80.7024 53.822 80.0534 55.076 80.0534 56.748C80.0534 57.76 80.2294 58.607 80.5814 59.289C80.9334 59.949 81.4724 60.521 82.1984 61.005C82.9244 61.467 83.8484 61.94 84.9704 62.424C86.1364 62.908 86.9944 63.304 87.5444 63.612C88.0944 63.92 88.4464 64.195 88.6004 64.437C88.7764 64.679 88.8644 64.954 88.8644 65.262C88.8644 65.724 88.6554 66.098 88.2374 66.384C87.8414 66.67 87.1594 66.813 86.1914 66.813C85.3334 66.813 84.3434 66.67 83.2214 66.384C82.0994 66.098 81.0544 65.735 80.0864 65.295V69.354C80.9884 69.728 81.8904 69.992 82.7924 70.146C83.6944 70.322 84.7724 70.41 86.0264 70.41C88.5784 70.41 90.4924 69.926 91.7684 68.958ZM95 84.08H0V88.08H95V84.08Z" fill="#333333"/>
</svg>
