<svg width="49" height="49" viewBox="0 0 49 49" fill="none" xmlns="http://www.w3.org/2000/svg">
<path fill-rule="evenodd" clip-rule="evenodd" d="M34.6231 9.93858L10.3769 9.93849C9.58248 9.93849 8.93846 10.5825 8.93846 11.3769V26.2902L15.1369 19.0589C16.0352 18.0108 17.673 18.0642 18.5013 19.1685L24.6336 27.3447L28.2088 23.7696C29.0867 22.8917 30.5224 22.9339 31.3472 23.8618L32.6861 25.368C32.212 25.5415 31.7563 25.7532 31.3226 25.9992L30.2721 24.8174C29.9972 24.5082 29.5186 24.4941 29.226 24.7867L25.5054 28.5072L27.2364 30.815C27.0267 31.3868 26.8725 31.9854 26.7802 32.6041L17.3505 20.0315C17.0744 19.6634 16.5285 19.6456 16.229 19.995L8.93846 28.5005V33.2685C8.93846 34.0629 9.58248 34.7069 10.3769 34.7069H26.709C26.7483 35.1983 26.8265 35.6788 26.9404 36.1453H10.3769C8.78804 36.1453 7.5 34.8573 7.5 33.2685V28.2431V28.2252L7.5 11.3769C7.5 9.78808 8.78804 8.50006 10.3769 8.50006L34.6231 8.50015C36.212 8.50015 37.5 9.78817 37.5 11.377V24.8669C37.3789 24.8126 37.2102 24.8126 37.0641 24.8126C36.7253 24.8126 36.3908 24.8311 36.0615 24.8669V11.377C36.0615 10.5826 35.4175 9.93858 34.6231 9.93858ZM26.5596 18.8841C27.9499 18.8841 29.0769 17.7571 29.0769 16.3669C29.0769 14.9766 27.9499 13.8496 26.5596 13.8496C25.1693 13.8496 24.0423 14.9766 24.0423 16.3669C24.0423 17.7571 25.1693 18.8841 26.5596 18.8841ZM26.5596 20.3226C28.7443 20.3226 30.5154 18.5515 30.5154 16.3669C30.5154 14.1822 28.7443 12.4112 26.5596 12.4112C24.3749 12.4112 22.6038 14.1822 22.6038 16.3669C22.6038 18.5515 24.3749 20.3226 26.5596 20.3226Z" fill="#A8A8A8"/>
<path fill-rule="evenodd" clip-rule="evenodd" d="M43.8125 34.5C43.8125 38.5386 40.5386 41.8125 36.5 41.8125C32.4614 41.8125 29.1875 38.5386 29.1875 34.5C29.1875 30.4614 32.4614 27.1875 36.5 27.1875C40.5386 27.1875 43.8125 30.4614 43.8125 34.5ZM45.5 34.5C45.5 39.4706 41.4706 43.5 36.5 43.5C31.5294 43.5 27.5 39.4706 27.5 34.5C27.5 29.5294 31.5294 25.5 36.5 25.5C41.4706 25.5 45.5 29.5294 45.5 34.5ZM36.5 30C36.0029 30 35.6 30.4029 35.6 30.9V33.6H32.9C32.4029 33.6 32 34.0029 32 34.5C32 34.9971 32.4029 35.4 32.9 35.4H35.6V38.1C35.6 38.5971 36.0029 39 36.5 39C36.9971 39 37.4 38.5971 37.4 38.1V35.4H40.1C40.5971 35.4 41 34.9971 41 34.5C41 34.0029 40.5971 33.6 40.1 33.6H37.4V30.9C37.4 30.4029 36.9971 30 36.5 30Z" fill="#A8A8A8"/>
</svg>
