<svg width="72" height="72" viewBox="0 0 72 72" fill="none" xmlns="http://www.w3.org/2000/svg">
<path d="M0 2C0 0.895431 0.895431 0 2 0H72V72H2C0.895431 72 0 71.1046 0 70V2Z" fill="#DA5C63"/>
<g filter="url(#filter0_d)">
<path fill-rule="evenodd" clip-rule="evenodd" d="M36 48C42.6274 48 48 42.6274 48 36C48 29.3726 42.6274 24 36 24C29.3726 24 24 29.3726 24 36C24 42.6274 29.3726 48 36 48ZM40.7071 31.2929C40.3166 30.9024 39.6834 30.9024 39.2929 31.2929L36 34.5858L32.7071 31.2929C32.3166 30.9024 31.6834 30.9024 31.2929 31.2929C30.9024 31.6834 30.9024 32.3166 31.2929 32.7071L34.5858 36L31.2929 39.2929C30.9024 39.6834 30.9024 40.3166 31.2929 40.7071C31.6834 41.0976 32.3166 41.0976 32.7071 40.7071L36 37.4142L39.2929 40.7071C39.6834 41.0976 40.3166 41.0976 40.7071 40.7071C41.0976 40.3166 41.0976 39.6834 40.7071 39.2929L37.4142 36L40.7071 32.7071C41.0976 32.3166 41.0976 31.6834 40.7071 31.2929Z" fill="white"/>
</g>
<defs>
<filter id="filter0_d" x="16" y="18" width="40" height="40" filterUnits="userSpaceOnUse" color-interpolation-filters="sRGB">
<feFlood flood-opacity="0" result="BackgroundImageFix"/>
<feColorMatrix in="SourceAlpha" type="matrix" values="0 0 0 0 0 0 0 0 0 0 0 0 0 0 0 0 0 0 127 0"/>
<feOffset dy="2"/>
<feGaussianBlur stdDeviation="4"/>
<feColorMatrix type="matrix" values="0 0 0 0 0 0 0 0 0 0 0 0 0 0 0 0 0 0 0.1 0"/>
<feBlend mode="normal" in2="BackgroundImageFix" result="effect1_dropShadow"/>
<feBlend mode="normal" in="SourceGraphic" in2="effect1_dropShadow" result="shape"/>
</filter>
</defs>
</svg>
