<svg width="24" height="24" viewBox="0 0 24 24" fill="none" xmlns="http://www.w3.org/2000/svg">
<path d="M0 4C0 1.79086 1.79086 0 4 0H20C22.2091 0 24 1.79086 24 4V20C24 22.2091 22.2091 24 20 24H4C1.79086 24 0 22.2091 0 20V4Z" fill="#96C60F"/>
<path fill-rule="evenodd" clip-rule="evenodd" d="M17.6456 4.64582C18.3935 5.00228 18.7107 5.89747 18.3543 6.64529L12.6343 18.6453C12.3975 19.1421 11.9077 19.4693 11.3582 19.4979C10.8086 19.5265 10.2875 19.2518 10.0005 18.7824L5.72047 11.7824C5.28833 11.0756 5.51096 10.1523 6.21774 9.72015C6.92453 9.288 7.84781 9.51064 8.27996 10.2174L11.1167 14.8569L15.6462 5.35444C16.0026 4.60662 16.8978 4.28936 17.6456 4.64582Z" fill="white"/>
<path d="M4 1H20V-1H4V1ZM23 4V20H25V4H23ZM20 23H4V25H20V23ZM1 20V4H-1V20H1ZM4 23C2.34315 23 1 21.6569 1 20H-1C-1 22.7614 1.23858 25 4 25V23ZM23 20C23 21.6569 21.6569 23 20 23V25C22.7614 25 25 22.7614 25 20H23ZM20 1C21.6569 1 23 2.34315 23 4H25C25 1.23858 22.7614 -1 20 -1V1ZM4 -1C1.23858 -1 -1 1.23858 -1 4H1C1 2.34315 2.34315 1 4 1V-1Z" fill="#96C60F"/>
</svg>
