<svg width="24" height="24" viewBox="0 0 24 24" fill="none" xmlns="http://www.w3.org/2000/svg">
<path fill-rule="evenodd" clip-rule="evenodd" d="M12 20C16.4183 20 20 16.4183 20 12C20 7.58172 16.4183 4 12 4C7.58172 4 4 7.58172 4 12C4 16.4183 7.58172 20 12 20ZM15.1381 8.86193C14.8777 8.60158 14.4556 8.60158 14.1953 8.86193L12 11.0572L9.80474 8.86193C9.54439 8.60158 9.12228 8.60158 8.86193 8.86193C8.60158 9.12228 8.60158 9.54439 8.86193 9.80474L11.0572 12L8.86193 14.1953C8.60158 14.4556 8.60158 14.8777 8.86193 15.1381C9.12228 15.3984 9.54439 15.3984 9.80474 15.1381L12 12.9428L14.1953 15.1381C14.4556 15.3984 14.8777 15.3984 15.1381 15.1381C15.3984 14.8777 15.3984 14.4556 15.1381 14.1953L12.9428 12L15.1381 9.80474C15.3984 9.54439 15.3984 9.12228 15.1381 8.86193Z" fill="#96C60F"/>
</svg>
