<svg width="40" height="40" viewBox="0 0 40 40" fill="none" xmlns="http://www.w3.org/2000/svg">
<g filter="url(#filter0_d)">
<path fill-rule="evenodd" clip-rule="evenodd" d="M20 30C26.6274 30 32 24.6274 32 18C32 11.3726 26.6274 6 20 6C13.3726 6 8 11.3726 8 18C8 24.6274 13.3726 30 20 30ZM24.7071 13.2929C24.3166 12.9024 23.6834 12.9024 23.2929 13.2929L20 16.5858L16.7071 13.2929C16.3166 12.9024 15.6834 12.9024 15.2929 13.2929C14.9024 13.6834 14.9024 14.3166 15.2929 14.7071L18.5858 18L15.2929 21.2929C14.9024 21.6834 14.9024 22.3166 15.2929 22.7071C15.6834 23.0976 16.3166 23.0976 16.7071 22.7071L20 19.4142L23.2929 22.7071C23.6834 23.0976 24.3166 23.0976 24.7071 22.7071C25.0976 22.3166 25.0976 21.6834 24.7071 21.2929L21.4142 18L24.7071 14.7071C25.0976 14.3166 25.0976 13.6834 24.7071 13.2929Z" fill="white"/>
</g>
<defs>
<filter id="filter0_d" x="0" y="0" width="40" height="40" filterUnits="userSpaceOnUse" color-interpolation-filters="sRGB">
<feFlood flood-opacity="0" result="BackgroundImageFix"/>
<feColorMatrix in="SourceAlpha" type="matrix" values="0 0 0 0 0 0 0 0 0 0 0 0 0 0 0 0 0 0 127 0"/>
<feOffset dy="2"/>
<feGaussianBlur stdDeviation="4"/>
<feColorMatrix type="matrix" values="0 0 0 0 0 0 0 0 0 0 0 0 0 0 0 0 0 0 0.1 0"/>
<feBlend mode="normal" in2="BackgroundImageFix" result="effect1_dropShadow"/>
<feBlend mode="normal" in="SourceGraphic" in2="effect1_dropShadow" result="shape"/>
</filter>
</defs>
</svg>
