<svg width="64" height="152" viewBox="0 0 64 152" fill="none" xmlns="http://www.w3.org/2000/svg">
<path d="M38.4559 30.6728C39.1383 31.0384 39.1644 32.0073 38.5027 32.4091L27.519 39.0777C26.8526 39.4823 26 39.0025 26 38.2229L26 25.6702C26 24.9144 26.8061 24.4318 27.4722 24.7887L38.4559 30.6728Z" fill="#96C60F"/>
<path d="M38.4559 74.6728C39.1383 75.0384 39.1644 76.0073 38.5027 76.4091L27.519 83.0777C26.8526 83.4823 26 83.0025 26 82.2229L26 69.6702C26 68.9144 26.8061 68.4318 27.4722 68.7887L38.4559 74.6728Z" fill="white"/>
<path d="M38.4559 118.673C39.1383 119.038 39.1644 120.007 38.5027 120.409L27.519 127.078C26.8526 127.482 26 127.003 26 126.223L26 113.67C26 112.914 26.8061 112.432 27.4722 112.789L38.4559 118.673Z" fill="#DCDCDD"/>
<rect x="0.5" y="0.5" width="63" height="151" rx="4.5" stroke="#A8A8A8" stroke-dasharray="10 5"/>
</svg>
