<svg width="16" height="16" viewBox="0 0 16 16" fill="none" xmlns="http://www.w3.org/2000/svg">
<circle cx="8" cy="8" r="6" fill="#A8A8A8"/>
<path fill-rule="evenodd" clip-rule="evenodd" d="M8.0009 4.40039C7.36371 4.40039 6.87071 4.95885 6.94974 5.59112L7.32648 8.60502C7.369 8.94515 7.65813 9.20039 8.0009 9.20039C8.34367 9.20039 8.63281 8.94515 8.67532 8.60502L9.05206 5.59112C9.13109 4.95885 8.63809 4.40039 8.0009 4.40039ZM8.00061 11.6001C8.41482 11.6001 8.75061 11.2643 8.75061 10.8501C8.75061 10.4359 8.41482 10.1001 8.00061 10.1001C7.58639 10.1001 7.25061 10.4359 7.25061 10.8501C7.25061 11.2643 7.58639 11.6001 8.00061 11.6001Z" fill="white"/>
</svg>
