<svg width="64" height="152" viewBox="0 0 64 152" fill="none" xmlns="http://www.w3.org/2000/svg">
<path d="M25.5441 30.6728C24.8617 31.0384 24.8356 32.0073 25.4973 32.4091L36.481 39.0777C37.1474 39.4823 38 39.0025 38 38.2229L38 25.6702C38 24.9144 37.1939 24.4318 36.5278 24.7887L25.5441 30.6728Z" fill="#96C60F"/>
<path d="M25.5441 74.6728C24.8617 75.0384 24.8356 76.0073 25.4973 76.4091L36.481 83.0777C37.1474 83.4823 38 83.0025 38 82.2229L38 69.6702C38 68.9144 37.1939 68.4318 36.5278 68.7887L25.5441 74.6728Z" fill="white"/>
<path d="M25.5441 118.673C24.8617 119.038 24.8356 120.007 25.4973 120.409L36.481 127.078C37.1474 127.482 38 127.003 38 126.223L38 113.67C38 112.914 37.1939 112.432 36.5278 112.789L25.5441 118.673Z" fill="#DCDCDD"/>
<rect x="0.5" y="0.5" width="63" height="151" rx="4.5" stroke="#A8A8A8" stroke-dasharray="10 5"/>
</svg>
