<svg width="64" height="152" viewBox="0 0 64 152" fill="none" xmlns="http://www.w3.org/2000/svg">
<path fill-rule="evenodd" clip-rule="evenodd" d="M35.6825 118.603C35.6825 121.408 33.4084 123.683 30.6032 123.683C27.7979 123.683 25.5238 121.408 25.5238 118.603C25.5238 115.798 27.7979 113.524 30.6032 113.524C33.4084 113.524 35.6825 115.798 35.6825 118.603ZM34.7026 123.78C33.5764 124.673 32.1521 125.206 30.6032 125.206C26.9563 125.206 24 122.25 24 118.603C24 114.956 26.9563 112 30.6032 112C34.25 112 37.2064 114.956 37.2064 118.603C37.2064 120.152 36.6731 121.576 35.7801 122.703L39.7768 126.699C40.0744 126.997 40.0744 127.479 39.7768 127.777C39.4793 128.074 38.9969 128.074 38.6993 127.777L34.7026 123.78Z" fill="#DCDCDD"/>
<path fill-rule="evenodd" clip-rule="evenodd" d="M35.6825 30.6032C35.6825 33.4084 33.4084 35.6825 30.6032 35.6825C27.7979 35.6825 25.5238 33.4084 25.5238 30.6032C25.5238 27.7979 27.7979 25.5238 30.6032 25.5238C33.4084 25.5238 35.6825 27.7979 35.6825 30.6032ZM34.7026 35.7801C33.5764 36.6731 32.1521 37.2064 30.6032 37.2064C26.9563 37.2064 24 34.25 24 30.6032C24 26.9563 26.9563 24 30.6032 24C34.25 24 37.2064 26.9563 37.2064 30.6032C37.2064 32.1521 36.6731 33.5764 35.7801 34.7026L39.7768 38.6993C40.0744 38.9969 40.0744 39.4793 39.7768 39.7768C39.4793 40.0744 38.9969 40.0744 38.6993 39.7768L34.7026 35.7801Z" fill="#96C60F"/>
<path fill-rule="evenodd" clip-rule="evenodd" d="M35.6825 74.6032C35.6825 77.4084 33.4084 79.6825 30.6032 79.6825C27.7979 79.6825 25.5238 77.4084 25.5238 74.6032C25.5238 71.7979 27.7979 69.5238 30.6032 69.5238C33.4084 69.5238 35.6825 71.7979 35.6825 74.6032ZM34.7026 79.7801C33.5764 80.6731 32.1521 81.2064 30.6032 81.2064C26.9563 81.2064 24 78.25 24 74.6032C24 70.9563 26.9563 68 30.6032 68C34.25 68 37.2064 70.9563 37.2064 74.6032C37.2064 76.1521 36.6731 77.5764 35.7801 78.7026L39.7768 82.6993C40.0744 82.9969 40.0744 83.4793 39.7768 83.7768C39.4793 84.0744 38.9969 84.0744 38.6993 83.7768L34.7026 79.7801Z" fill="white"/>
<rect x="0.5" y="0.5" width="63" height="151" rx="4.5" stroke="#A8A8A8" stroke-dasharray="10 5"/>
</svg>
