<svg width="24" height="24" viewBox="0 0 24 24" fill="none" xmlns="http://www.w3.org/2000/svg">
<path fill-rule="evenodd" clip-rule="evenodd" d="M12 24C18.6274 24 24 18.6274 24 12C24 5.37258 18.6274 0 12 0C5.37258 0 0 5.37258 0 12C0 18.6274 5.37258 24 12 24ZM16.9138 8.4059C17.1382 7.90122 16.9109 7.31025 16.4062 7.08595C15.9015 6.86165 15.3105 7.08894 15.0862 7.59362L11.7539 15.0913L8.78091 11.3751C8.4359 10.9438 7.8066 10.8739 7.37534 11.2189C6.94408 11.5639 6.87416 12.1932 7.21917 12.6245L11.2192 17.6245C11.4373 17.8971 11.7817 18.0362 12.1279 17.9915C12.4742 17.9469 12.7721 17.7249 12.9138 17.4059L16.9138 8.4059Z" fill="#DCDCDD"/>
</svg>
