<svg width="24" height="24" viewBox="0 0 24 24" fill="none" xmlns="http://www.w3.org/2000/svg">
<path fill-rule="evenodd" clip-rule="evenodd" d="M12 24C18.6274 24 24 18.6274 24 12C24 5.37258 18.6274 0 12 0C5.37258 0 0 5.37258 0 12C0 18.6274 5.37258 24 12 24ZM12.2586 12.608C12.2586 15.572 10.7106 16.652 8.94661 16.652C7.09861 16.652 5.64661 15.5 5.64661 12.656V12.224C5.64661 9.236 7.24261 8.144 8.97061 8.144C10.7346 8.144 12.2586 9.26 12.2586 12.188V12.608ZM7.43461 12.62C7.43461 14.48 7.90261 15.38 8.94661 15.38C9.99061 15.38 10.4946 14.624 10.4946 12.704V12.188C10.4946 10.28 9.97861 9.416 8.95861 9.416C7.92661 9.416 7.43461 10.232 7.43461 12.104V12.62ZM18.3398 14.144C18.3398 15.692 17.2118 16.628 15.3038 16.628C14.2958 16.628 13.2518 16.352 12.7718 16.052L13.0358 14.852C13.4438 15.104 14.3678 15.308 15.0038 15.308C16.0118 15.308 16.5518 14.888 16.5518 14.024C16.5518 13.196 15.9998 12.896 15.0278 12.872L14.1278 12.848V11.66L14.9318 11.636C15.8318 11.612 16.3838 11.228 16.3838 10.496C16.3838 9.74 15.9038 9.464 15.0398 9.464C14.4518 9.464 13.7678 9.644 13.2878 9.848L13.1078 8.612C13.6358 8.336 14.6558 8.144 15.5078 8.144C17.0678 8.144 18.0638 8.852 18.0638 10.196C18.0638 11.18 17.5118 11.816 16.6118 12.14C17.6438 12.332 18.3398 12.932 18.3398 14.144Z" fill="#96C60F"/>
</svg>
