<svg width="24" height="24" viewBox="0 0 24 24" fill="none" xmlns="http://www.w3.org/2000/svg">
<path fill-rule="evenodd" clip-rule="evenodd" d="M12 24C18.6274 24 24 18.6274 24 12C24 5.37258 18.6274 0 12 0C5.37258 0 0 5.37258 0 12C0 18.6274 5.37258 24 12 24ZM13.1784 12.608C13.1784 15.572 11.6304 16.652 9.86641 16.652C8.01841 16.652 6.56641 15.5 6.56641 12.656V12.224C6.56641 9.23604 8.16241 8.14404 9.89041 8.14404C11.6544 8.14404 13.1784 9.26004 13.1784 12.188V12.608ZM8.35441 12.62C8.35441 14.48 8.82241 15.38 9.86641 15.38C10.9104 15.38 11.4144 14.624 11.4144 12.704V12.188C11.4144 10.28 10.8984 9.41604 9.87841 9.41604C8.84641 9.41604 8.35441 10.232 8.35441 12.104V12.62ZM16.8933 16.556H15.1773V9.94404L13.8333 10.196V9.20004L16.0173 8.24004H16.8933V16.556Z" fill="#96C60F"/>
</svg>
