<svg width="24" height="24" viewBox="0 0 24 24" fill="none" xmlns="http://www.w3.org/2000/svg">
<path fill-rule="evenodd" clip-rule="evenodd" d="M12 24C18.6274 24 24 18.6274 24 12C24 5.37258 18.6274 0 12 0C5.37258 0 0 5.37258 0 12C0 18.6274 5.37258 24 12 24ZM12.2233 12.608C12.2233 15.572 10.6753 16.652 8.91133 16.652C7.06333 16.652 5.61133 15.5 5.61133 12.656V12.224C5.61133 9.23604 7.20733 8.14404 8.93533 8.14404C10.6993 8.14404 12.2233 9.26004 12.2233 12.188V12.608ZM7.39933 12.62C7.39933 14.48 7.86733 15.38 8.91133 15.38C9.95533 15.38 10.4593 14.624 10.4593 12.704V12.188C10.4593 10.28 9.94333 9.41604 8.92333 9.41604C7.89133 9.41604 7.39933 10.232 7.39933 12.104V12.62ZM18.4108 16.508H13.0828V15.524L14.5108 14C15.6388 12.8 16.6228 11.72 16.6228 10.748C16.6228 9.77604 16.0708 9.45204 15.0508 9.45204C14.5348 9.45204 13.8508 9.70404 13.3948 9.94404L13.1788 8.73204C13.7548 8.40804 14.5948 8.14404 15.5548 8.14404C17.4508 8.14404 18.3868 8.99604 18.3868 10.508C18.3868 11.9719 17.0047 13.4126 16.1601 14.293L16.1188 14.336L15.2668 15.2H18.4108V16.508Z" fill="#A8A8A8"/>
</svg>
