<svg width="16" height="16" viewBox="0 0 16 16" fill="none" xmlns="http://www.w3.org/2000/svg">
<path fill-rule="evenodd" clip-rule="evenodd" d="M8 16C12.4183 16 16 12.4183 16 8C16 3.58172 12.4183 0 8 0C3.58172 0 0 3.58172 0 8C0 12.4183 3.58172 16 8 16ZM11.1381 4.86193C10.8777 4.60158 10.4556 4.60158 10.1953 4.86193L8 7.05719L5.80474 4.86193C5.54439 4.60158 5.12228 4.60158 4.86193 4.86193C4.60158 5.12228 4.60158 5.54439 4.86193 5.80474L7.05719 8L4.86193 10.1953C4.60158 10.4556 4.60158 10.8777 4.86193 11.1381C5.12228 11.3984 5.54439 11.3984 5.80474 11.1381L8 8.94281L10.1953 11.1381C10.4556 11.3984 10.8777 11.3984 11.1381 11.1381C11.3984 10.8777 11.3984 10.4556 11.1381 10.1953L8.94281 8L11.1381 5.80474C11.3984 5.54439 11.3984 5.12228 11.1381 4.86193Z" fill="white"/>
</svg>
