<svg width="13" height="14" viewBox="0 0 13 14" fill="none" xmlns="http://www.w3.org/2000/svg">
<path fill-rule="evenodd" clip-rule="evenodd" d="M6.96048 2.24009C4.2755 1.8324 1.7662 3.69302 1.3558 6.39589C1.30108 6.75627 0.966507 7.00435 0.608509 6.94999C0.250512 6.89564 0.0046576 6.55942 0.0593778 6.19904C0.57922 2.7754 3.75767 0.418623 7.15864 0.935024C8.98439 1.21224 10.5034 2.26192 11.4375 3.70235L12.1707 3.275C12.4061 3.13781 12.6951 3.33152 12.6597 3.60277L12.2899 6.43709C12.2758 6.54473 12.1641 6.60984 12.0645 6.56844L9.44145 5.47846C9.19042 5.37415 9.16781 5.02518 9.4032 4.888L10.2995 4.36559C9.55801 3.25709 8.37633 2.45507 6.96048 2.24009ZM5.88641 12.4159C8.40709 12.9041 10.8489 11.2428 11.3403 8.70531C11.4058 8.36698 11.7314 8.14547 12.0675 8.21056C12.4036 8.27565 12.6229 8.60269 12.5574 8.94102C11.9349 12.1552 8.84199 14.2595 5.64912 13.6411C3.9351 13.3092 2.54045 12.2593 1.71338 10.8627L1.00434 11.2383C0.776722 11.3589 0.511172 11.1648 0.555016 10.9099L1.01315 8.24669C1.03055 8.14555 1.13856 8.08834 1.23108 8.13126L3.66709 9.26159C3.90022 9.36976 3.90818 9.70027 3.68056 9.82083L2.8138 10.2799C3.47172 11.3555 4.55719 12.1585 5.88641 12.4159Z" fill="#A8A8A8"/>
</svg>
