<svg width="13" height="14" viewBox="0 0 13 14" fill="none" xmlns="http://www.w3.org/2000/svg">
<path fill-rule="evenodd" clip-rule="evenodd" d="M6.96048 2.24005C4.2755 1.83237 1.7662 3.69299 1.3558 6.39586C1.30108 6.75624 0.966507 7.00432 0.608509 6.94996C0.250512 6.89561 0.0046576 6.55939 0.0593778 6.19901C0.57922 2.77537 3.75767 0.418593 7.15864 0.934994C8.98439 1.21221 10.5034 2.26189 11.4375 3.70232L12.1707 3.27497C12.4061 3.13778 12.6951 3.33149 12.6597 3.60274L12.2899 6.43706C12.2758 6.5447 12.1641 6.6098 12.0645 6.56841L9.44145 5.47843C9.19042 5.37412 9.16781 5.02515 9.4032 4.88796L10.2995 4.36556C9.55801 3.25705 8.37633 2.45504 6.96048 2.24005ZM5.88641 12.4159C8.40709 12.904 10.8489 11.2428 11.3403 8.70528C11.4058 8.36695 11.7314 8.14544 12.0675 8.21053C12.4036 8.27562 12.6229 8.60266 12.5574 8.94099C11.9349 12.1551 8.84199 14.2594 5.64912 13.6411C3.9351 13.3091 2.54045 12.2593 1.71338 10.8627L1.00434 11.2383C0.776722 11.3588 0.511172 11.1647 0.555016 10.9099L1.01315 8.24666C1.03055 8.14552 1.13856 8.08831 1.23108 8.13123L3.66709 9.26156C3.90022 9.36973 3.90818 9.70024 3.68056 9.8208L2.8138 10.2799C3.47172 11.3555 4.55719 12.1585 5.88641 12.4159Z" fill="#96C60F"/>
</svg>
