<svg width="40" height="38" viewBox="0 0 40 38" fill="none" xmlns="http://www.w3.org/2000/svg">
<path d="M1 1H37C38.1046 1 39 1.89543 39 3V35C39 36.1046 38.1046 37 37 37H1V1Z" fill="white"/>
<g clip-path="url(#clip0)">
<path d="M19.0585 23.2929C18.668 22.9024 18.6648 22.2724 19.0514 21.8858L24.6514 16.2858C25.038 15.8992 25.668 15.9024 26.0585 16.2929C26.449 16.6834 26.4522 17.3134 26.0656 17.7L20.4656 23.3C20.079 23.6866 19.449 23.6834 19.0585 23.2929Z" fill="#A8A8A8"/>
<path d="M20.4656 23.3C20.079 23.6866 19.449 23.6834 19.0585 23.2929L13.4017 17.636C13.0111 17.2455 13.008 16.6155 13.3946 16.2289C13.7812 15.8423 14.4111 15.8455 14.8017 16.236L20.4585 21.8929C20.849 22.2834 20.8522 22.9134 20.4656 23.3Z" fill="#A8A8A8"/>
</g>
<path d="M1 1H37C38.1046 1 39 1.89543 39 3V35C39 36.1046 38.1046 37 37 37H1V1Z" stroke="#DCDCDD"/>
<defs>
<clipPath id="clip0">
<rect width="24" height="24" fill="white" transform="translate(8 8)"/>
</clipPath>
</defs>
</svg>
