<svg width="24" height="24" viewBox="0 0 24 24" fill="none" xmlns="http://www.w3.org/2000/svg">
<g clip-path="url(#clip0)">
<path d="M11.0585 15.2929C10.668 14.9024 10.6648 14.2724 11.0514 13.8858L16.6514 8.28579C17.038 7.89919 17.668 7.90237 18.0585 8.29289C18.449 8.68342 18.4522 9.3134 18.0656 9.7L12.4656 15.3C12.079 15.6866 11.449 15.6834 11.0585 15.2929Z" fill="#A8A8A8"/>
<path d="M12.4656 15.3C12.079 15.6866 11.449 15.6834 11.0585 15.2929L5.40166 9.63604C5.01114 9.24552 5.00796 8.61553 5.39456 8.22893C5.78116 7.84233 6.41114 7.84552 6.80166 8.23604L12.4585 13.8929C12.849 14.2834 12.8522 14.9134 12.4656 15.3Z" fill="#A8A8A8"/>
</g>
<defs>
<clipPath id="clip0">
<rect width="24" height="24" fill="white"/>
</clipPath>
</defs>
</svg>
