<svg width="44" height="50" viewBox="0 0 44 50" fill="none" xmlns="http://www.w3.org/2000/svg">
<path d="M43.1518 47.2034V48.3081C43.067 48.4086 42.8974 48.6094 42.6429 48.7099C42.3885 48.8103 42.2189 48.9107 41.9645 48.9107C41.71 48.9107 41.4556 48.8103 41.2011 48.7099C40.9467 48.509 40.7771 48.3081 40.6074 47.9064C40.5226 47.6051 40.4378 47.1029 40.4378 46.6008C40.4378 46.199 40.5226 45.7973 40.6074 45.496C40.6923 45.2952 40.7771 45.0943 40.8619 44.8934C40.9467 44.6926 41.1163 44.5921 41.2859 44.4917C41.4556 44.3913 41.71 44.2908 41.9645 44.2908C42.1341 44.2908 42.3885 44.2908 42.5581 44.4917C42.7278 44.5921 42.8974 44.6926 42.9822 44.8934C43.067 45.0943 43.1518 45.2952 43.2366 45.5965L43.7455 45.3956C43.6607 44.9939 43.5759 44.6926 43.4063 44.4917C43.2366 44.2908 43.067 44.09 42.8126 43.8891C42.5581 43.7887 42.3037 43.6882 41.9645 43.6882C41.5404 43.6882 41.2011 43.7887 40.8619 43.9895C40.5226 44.1904 40.2682 44.5921 40.0986 45.0943C39.9289 45.5965 39.8441 46.0986 39.8441 46.7012C39.8441 47.3038 39.9289 47.806 40.0986 48.2077C40.2682 48.7099 40.5226 49.0112 40.8619 49.212C41.2011 49.4129 41.5404 49.6138 41.9645 49.6138C42.3037 49.6138 42.5581 49.5133 42.8126 49.4129C43.067 49.3125 43.4063 49.0112 43.6607 48.7099V46.6008H41.8796V47.2034H43.1518ZM36.1972 49.5133V44.9939L38.4023 49.5133H38.996V43.7887H38.4871V48.2077L36.282 43.6882H35.6883V49.4129H36.1972V49.5133ZM34.5857 43.7887H34.0769V49.5133H34.5857V43.7887ZM30.1755 44.3913H31.4477C31.7869 44.3913 31.9566 44.4917 32.1262 44.6926C32.2958 44.8934 32.3806 45.0943 32.3806 45.3956C32.3806 45.5965 32.3806 45.7973 32.2958 45.8977C32.211 46.0986 32.1262 46.199 31.9566 46.199C31.7869 46.2995 31.6173 46.2995 31.3629 46.2995H30.1755V44.3913ZM30.1755 49.5133V47.0025H30.854C31.0236 47.0025 31.1084 47.0025 31.1932 47.0025C31.2781 47.0025 31.3629 47.1029 31.4477 47.2034C31.5325 47.3038 31.6173 47.4042 31.7021 47.6051C31.7869 47.806 31.9566 48.0068 32.1262 48.4086L32.6351 49.6138H33.3136L32.5502 48.0068C32.3806 47.7055 32.2958 47.4042 32.1262 47.2034C32.0414 47.1029 31.9566 47.0025 31.7869 46.9021C32.211 46.8016 32.4654 46.6008 32.6351 46.3999C32.8047 46.0986 32.8895 45.7973 32.8895 45.3956C32.8895 45.0943 32.8047 44.793 32.7199 44.4917C32.6351 44.1904 32.4654 44.09 32.2958 43.9895C32.1262 43.8891 31.7869 43.7887 31.4477 43.7887H29.5818V49.5133H30.1755ZM28.7337 49.5133V48.8103H26.1893V46.9021H28.4792V46.199H26.1893V44.3913H28.6489V43.6882H25.6804V49.4129H28.7337V49.5133ZM24.7475 49.5133V48.8103H22.2031V46.9021H24.493V46.199H22.2031V44.3913H24.6627V43.6882H21.6942V49.4129H24.7475V49.5133ZM17.8777 49.5133V44.9939L20.0828 49.5133H20.6765V43.7887H20.1676V48.2077L17.9625 43.6882H17.3688V49.4129H17.8777V49.5133ZM16.2662 43.7887H15.7573V49.5133H16.2662V43.7887ZM14.1459 47.2034V48.3081C14.0611 48.4086 13.8915 48.6094 13.637 48.7099C13.3826 48.8103 13.213 48.9107 12.9585 48.9107C12.7041 48.9107 12.4496 48.8103 12.1952 48.7099C11.9408 48.509 11.7711 48.3081 11.6015 47.9064C11.4319 47.6051 11.4319 47.1029 11.4319 46.6008C11.4319 46.199 11.5167 45.7973 11.6015 45.496C11.6863 45.2952 11.7711 45.0943 11.856 44.8934C11.9408 44.6926 12.1104 44.5921 12.28 44.4917C12.4496 44.3913 12.7041 44.2908 12.9585 44.2908C13.1281 44.2908 13.3826 44.2908 13.5522 44.4917C13.7218 44.5921 13.8915 44.6926 13.9763 44.8934C14.0611 45.0943 14.1459 45.2952 14.2307 45.5965L14.7396 45.3956C14.6548 44.9939 14.57 44.6926 14.4003 44.4917C14.2307 44.2908 14.0611 44.09 13.8067 43.8891C13.5522 43.7887 13.2978 43.6882 12.9585 43.6882C12.5345 43.6882 12.1952 43.7887 11.856 43.9895C11.5167 44.1904 11.2623 44.5921 11.0926 45.0943C10.923 45.5965 10.8382 46.0986 10.8382 46.7012C10.8382 47.3038 10.923 47.806 11.0926 48.2077C11.2623 48.7099 11.5167 49.0112 11.856 49.212C12.1952 49.4129 12.5345 49.6138 12.9585 49.6138C13.2978 49.6138 13.5522 49.5133 13.8067 49.4129C14.0611 49.3125 14.4003 49.0112 14.6548 48.7099V46.6008H12.8737V47.2034H14.1459ZM7.27608 49.5133V44.9939L9.48121 49.5133H10.0749V43.7887H9.56602V48.2077L7.36089 43.6882H6.68239V49.4129H7.27608V49.5133ZM5.83426 49.5133V48.8103H3.28988V46.9021H5.57982V46.199H3.28988V44.3913H5.74945V43.6882H2.78101V49.4129H5.83426V49.5133Z" fill="black"/>
<path d="M37.3847 33.1429C37.7239 32.6407 38.2328 32.4399 38.8265 32.4399C39.4202 32.4399 39.929 32.6407 40.3531 33.1429C40.6923 33.6451 40.9468 34.3481 40.9468 35.3524C40.9468 36.5576 40.7772 37.3611 40.4379 37.8632C40.0987 38.3654 39.5898 38.5663 38.9113 38.5663C38.3176 38.5663 37.8087 38.3654 37.3847 37.8632C36.9606 37.3611 36.8758 36.5576 36.8758 35.5533C36.791 34.3481 37.0454 33.5446 37.3847 33.1429ZM34.501 38.5663C34.9251 39.3697 35.5188 39.9723 36.2821 40.3741C36.9606 40.7758 37.8935 40.9766 38.9961 40.9766C40.0987 40.9766 40.9468 40.7758 41.7101 40.2736C42.4734 39.8719 42.9823 39.1689 43.4063 38.3654C43.8304 37.5619 44 36.5576 44 35.252C44 33.5446 43.576 32.1386 42.643 31.2347C41.7949 30.2303 40.5227 29.8286 38.9113 29.8286C37.2998 29.8286 36.1125 30.3308 35.1795 31.3351C34.3314 32.3394 33.8225 33.6451 33.8225 35.4528C33.8225 36.658 34.077 37.7628 34.501 38.5663ZM26.8679 32.239H28.2249C28.7338 32.239 29.1578 32.3394 29.3275 32.5403C29.4971 32.7412 29.6667 33.0425 29.6667 33.3438C29.6667 33.5446 29.5819 33.7455 29.4971 33.9464C29.4123 34.1472 29.2426 34.2477 28.9882 34.2477C28.5641 34.3481 28.3097 34.3481 28.2249 34.3481H26.9527V32.239H26.8679ZM26.8679 40.8762V36.4572H27.2071C27.4616 36.4572 27.716 36.5576 27.9704 36.658C28.1401 36.7585 28.3097 37.0598 28.4793 37.4615L30.0908 40.7758H33.4833L32.0415 37.6624C31.9566 37.4615 31.8718 37.2606 31.6174 36.9593C31.363 36.658 31.2781 36.4572 31.1085 36.3567C30.9389 36.2563 30.6845 36.0554 30.3452 35.955C30.7693 35.8546 31.1085 35.6537 31.363 35.5533C31.787 35.252 32.0415 34.9507 32.2959 34.4485C32.5503 34.0468 32.6351 33.5446 32.6351 32.942C32.6351 32.239 32.4655 31.6364 32.2111 31.2347C31.8718 30.7325 31.5326 30.4312 31.0237 30.2303C30.5148 30.0295 29.8363 29.929 28.9034 29.929H23.8994V40.7758H26.8679V40.8762ZM18.8107 36.658C18.8107 37.2606 18.6411 37.7628 18.3866 38.0641C18.1322 38.3654 17.7081 38.5663 17.1992 38.5663C16.6904 38.5663 16.2663 38.3654 16.0119 38.0641C15.7574 37.7628 15.5878 37.2606 15.5878 36.658V30.0295H12.6194V36.4572C12.6194 36.9593 12.7042 37.5619 12.8738 38.265C12.9586 38.6667 13.2131 39.0684 13.5523 39.4702C13.8916 39.8719 14.2308 40.1732 14.5701 40.3741C14.9093 40.5749 15.4182 40.7758 16.0119 40.7758C16.6056 40.8762 17.1144 40.8762 17.5385 40.8762C18.3866 40.8762 19.0651 40.7758 19.6588 40.4745C20.0829 40.2736 20.5069 39.9723 20.8462 39.5706C21.2703 39.1689 21.5247 38.6667 21.6943 38.0641C21.8639 37.4615 21.9488 36.8589 21.9488 36.2563V29.8286H18.9803V36.658H18.8107ZM2.69629 40.8762H10.9231V38.4658H5.66473V36.3567H10.3294V34.1472H5.66473V32.4399H10.7535V30.1299H2.69629V40.8762Z" fill="#0C3388"/>
<path d="M3.88363 27.9202H1V31.3349H3.88363V27.9202Z" fill="#E60012"/>
<path d="M3.88363 27.9202H1V31.3349H3.88363V27.9202Z" stroke="white" stroke-width="0.274"/>
<path d="M2.78101 17.2744V22.6978H43.0669V17.2744C38.9959 18.7809 31.5324 19.7852 22.9664 19.7852C14.4003 19.7852 6.76719 18.7809 2.78101 17.2744Z" fill="#006CB8"/>
<path d="M2.78101 8.53687V13.9602H43.0669V8.53687C38.9959 10.0434 31.4476 11.0477 22.8815 11.0477C14.3155 11.0477 6.76719 10.0434 2.78101 8.53687Z" fill="#0C3388"/>
<path d="M2.78101 0V5.42336H43.067V0C38.996 1.50649 31.4477 2.51082 22.8816 2.51082C14.3155 2.51082 6.7672 1.50649 2.78101 0Z" fill="#006CB8"/>
</svg>
