<svg width="44" height="51" viewBox="0 0 44 51" fill="none" xmlns="http://www.w3.org/2000/svg">
<path d="M43.1518 48.5065V49.6417C43.067 49.7449 42.8974 49.9513 42.6429 50.0545C42.3885 50.1577 42.2189 50.261 41.9644 50.261C41.71 50.261 41.4555 50.1577 41.2011 50.0545C40.9467 49.8481 40.777 49.6417 40.6074 49.2289C40.5226 48.9193 40.4378 48.4033 40.4378 47.8872C40.4378 47.4744 40.5226 47.0616 40.6074 46.752C40.6922 46.5456 40.777 46.3392 40.8619 46.1327C40.9467 45.9263 41.1163 45.8231 41.2859 45.7199C41.4555 45.6167 41.71 45.5135 41.9644 45.5135C42.134 45.5135 42.3885 45.5135 42.5581 45.7199C42.7277 45.8231 42.8974 45.9263 42.9822 46.1327C43.067 46.3392 43.1518 46.5456 43.2366 46.8552L43.7455 46.6488C43.6607 46.236 43.5759 45.9263 43.4062 45.7199C43.2366 45.5135 43.067 45.3071 42.8125 45.1007C42.5581 44.9975 42.3037 44.8943 41.9644 44.8943C41.5404 44.8943 41.2011 44.9975 40.8619 45.2039C40.5226 45.4103 40.2682 45.8231 40.0985 46.3392C39.9289 46.8552 39.8441 47.3712 39.8441 47.9904C39.8441 48.6097 39.9289 49.1257 40.0985 49.5385C40.2682 50.0545 40.5226 50.3642 40.8619 50.5706C41.2011 50.777 41.5404 50.9834 41.9644 50.9834C42.3037 50.9834 42.5581 50.8802 42.8125 50.777C43.067 50.6738 43.4062 50.3642 43.6607 50.0545V47.8872H41.8796V48.5065H43.1518ZM36.1972 50.8802V46.236L38.4023 50.8802H38.996V44.9975H38.4871V49.5385L36.282 44.8943H35.6883V50.777H36.1972V50.8802ZM34.5857 44.9975H34.0768V50.8802H34.5857V44.9975ZM30.1755 45.6167H31.4477C31.7869 45.6167 31.9565 45.7199 32.1262 45.9263C32.2958 46.1327 32.3806 46.3392 32.3806 46.6488C32.3806 46.8552 32.3806 47.0616 32.2958 47.1648C32.211 47.3712 32.1262 47.4744 31.9565 47.4744C31.7869 47.5776 31.6173 47.5776 31.3628 47.5776H30.1755V45.6167ZM30.1755 50.8802V48.3001H30.854C31.0236 48.3001 31.1084 48.3001 31.1932 48.3001C31.278 48.3001 31.3628 48.4033 31.4477 48.5065C31.5325 48.6097 31.6173 48.7129 31.7021 48.9193C31.7869 49.1257 31.9565 49.3321 32.1262 49.7449L32.635 50.9834H33.3135L32.5502 49.3321C32.3806 49.0225 32.2958 48.7129 32.1262 48.5065C32.0413 48.4033 31.9565 48.3001 31.7869 48.1969C32.211 48.0936 32.4654 47.8872 32.635 47.6808C32.8047 47.3712 32.8895 47.0616 32.8895 46.6488C32.8895 46.3392 32.8047 46.0295 32.7198 45.7199C32.635 45.4103 32.4654 45.3071 32.2958 45.2039C32.1262 45.1007 31.7869 44.9975 31.4477 44.9975H29.5818V50.8802H30.1755ZM28.7337 50.8802V50.1577H26.1893V48.1969H28.4792V47.4744H26.1893V45.6167H28.6488V44.8943H25.6804V50.777H28.7337V50.8802ZM24.7475 50.8802V50.1577H22.2031V48.1969H24.493V47.4744H22.2031V45.6167H24.6627V44.8943H21.6942V50.777H24.7475V50.8802ZM17.8776 50.8802V46.236L20.0828 50.8802H20.6765V44.9975H20.1676V49.5385L17.9625 44.8943H17.3688V50.777H17.8776V50.8802ZM16.2662 44.9975H15.7573V50.8802H16.2662V44.9975ZM14.1459 48.5065V49.6417C14.0611 49.7449 13.8915 49.9513 13.637 50.0545C13.3826 50.1577 13.213 50.261 12.9585 50.261C12.7041 50.261 12.4496 50.1577 12.1952 50.0545C11.9408 49.8481 11.7711 49.6417 11.6015 49.2289C11.4319 48.9193 11.4319 48.4033 11.4319 47.8872C11.4319 47.4744 11.5167 47.0616 11.6015 46.752C11.6863 46.5456 11.7711 46.3392 11.856 46.1327C11.9408 45.9263 12.1104 45.8231 12.28 45.7199C12.4496 45.6167 12.7041 45.5135 12.9585 45.5135C13.1281 45.5135 13.3826 45.5135 13.5522 45.7199C13.7218 45.8231 13.8915 45.9263 13.9763 46.1327C14.0611 46.3392 14.1459 46.5456 14.2307 46.8552L14.7396 46.6488C14.6548 46.236 14.57 45.9263 14.4003 45.7199C14.2307 45.5135 14.0611 45.3071 13.8066 45.1007C13.5522 44.9975 13.2978 44.8943 12.9585 44.8943C12.5345 44.8943 12.1952 44.9975 11.856 45.2039C11.5167 45.4103 11.2623 45.8231 11.0926 46.3392C10.923 46.8552 10.8382 47.3712 10.8382 47.9904C10.8382 48.6097 10.923 49.1257 11.0926 49.5385C11.2623 50.0545 11.5167 50.3642 11.856 50.5706C12.1952 50.777 12.5345 50.9834 12.9585 50.9834C13.2978 50.9834 13.5522 50.8802 13.8066 50.777C14.0611 50.6738 14.4003 50.3642 14.6548 50.0545V47.8872H12.8737V48.5065H14.1459ZM7.27607 50.8802V46.236L9.4812 50.8802H10.0749V44.9975H9.56601V49.5385L7.36089 44.8943H6.68238V50.777H7.27607V50.8802ZM5.83426 50.8802V50.1577H3.28988V48.1969H5.57982V47.4744H3.28988V45.6167H5.74945V44.8943H2.78101V50.777H5.83426V50.8802Z" fill="white"/>
<path d="M37.3846 34.0579C37.7239 33.5419 38.2327 33.3354 38.8264 33.3354C39.4201 33.3354 39.929 33.5419 40.3531 34.0579C40.6923 34.5739 40.9468 35.2963 40.9468 36.3284C40.9468 37.5669 40.7771 38.3925 40.4379 38.9085C40.0986 39.4246 39.5897 39.631 38.9112 39.631C38.3176 39.631 37.8087 39.4246 37.3846 38.9085C36.9606 38.3925 36.8757 37.5669 36.8757 36.5348C36.7909 35.2963 37.0454 34.4707 37.3846 34.0579ZM34.501 39.631C34.9251 40.4566 35.5187 41.0758 36.2821 41.4887C36.9606 41.9015 37.8935 42.1079 38.9961 42.1079C40.0986 42.1079 40.9467 41.9015 41.7101 41.3855C42.4734 40.9726 42.9822 40.2502 43.4063 39.4246C43.8304 38.5989 44 37.5669 44 36.2252C44 34.4707 43.5759 33.0258 42.643 32.097C41.7949 31.0649 40.5227 30.6521 38.9112 30.6521C37.2998 30.6521 36.1124 31.1681 35.1795 32.2002C34.3314 33.2322 33.8225 34.5739 33.8225 36.4316C33.8225 37.6701 34.0769 38.8053 34.501 39.631ZM26.8679 33.129H28.2249C28.7337 33.129 29.1578 33.2322 29.3274 33.4386C29.4971 33.6451 29.6667 33.9547 29.6667 34.2643C29.6667 34.4707 29.5819 34.6771 29.4971 34.8835C29.4122 35.0899 29.2426 35.1931 28.9882 35.1931C28.5641 35.2963 28.3097 35.2963 28.2249 35.2963H26.9527V33.129H26.8679ZM26.8679 42.0047V37.4637H27.2071C27.4616 37.4637 27.716 37.5669 27.9704 37.6701C28.1401 37.7733 28.3097 38.0829 28.4793 38.4957L30.0907 41.9015H33.4832L32.0414 38.7021C31.9566 38.4957 31.8718 38.2893 31.6174 37.9797C31.3629 37.6701 31.2781 37.4637 31.1085 37.3605C30.9389 37.2572 30.6844 37.0508 30.3452 36.9476C30.7692 36.8444 31.1085 36.638 31.3629 36.5348C31.787 36.2252 32.0414 35.9156 32.2959 35.3995C32.5503 34.9867 32.6351 34.4707 32.6351 33.8515C32.6351 33.129 32.4655 32.5098 32.2111 32.097C31.8718 31.5809 31.5326 31.2713 31.0237 31.0649C30.5148 30.8585 29.8363 30.7553 28.9034 30.7553H23.8994V41.9015H26.8679V42.0047ZM18.8107 37.6701C18.8107 38.2893 18.641 38.8053 18.3866 39.1149C18.1322 39.4246 17.7081 39.631 17.1992 39.631C16.6904 39.631 16.2663 39.4246 16.0119 39.1149C15.7574 38.8053 15.5878 38.2893 15.5878 37.6701V30.8585H12.6194V37.4637C12.6194 37.9797 12.7042 38.5989 12.8738 39.3214C12.9586 39.7342 13.213 40.147 13.5523 40.5598C13.8915 40.9726 14.2308 41.2823 14.57 41.4887C14.9093 41.6951 15.4182 41.9015 16.0119 41.9015C16.6055 42.0047 17.1144 42.0047 17.5385 42.0047C18.3866 42.0047 19.0651 41.9015 19.6588 41.5919C20.0829 41.3855 20.5069 41.0759 20.8462 40.663C21.2702 40.2502 21.5247 39.7342 21.6943 39.1149C21.8639 38.4957 21.9487 37.8765 21.9487 37.2572V30.6521H18.9803V37.6701H18.8107ZM2.69629 42.0047H10.9231V39.5278H5.66473V37.3605H10.3294V35.0899H5.66473V33.3354H10.7535V30.9617H2.69629V42.0047Z" fill="white"/>
<path d="M3.88367 28.6912H1V32.2001H3.88367V28.6912Z" fill="white"/>
<path d="M3.88367 28.6912H1V32.2001H3.88367V28.6912Z" stroke="#BBBBBB" stroke-width="0.274"/>
<path d="M2.78101 17.7512V23.3243H43.0669V17.7512C38.9959 19.2993 31.5324 20.3314 22.9664 20.3314C14.4003 20.3314 6.76719 19.2993 2.78101 17.7512Z" fill="white"/>
<path d="M2.78101 8.77246V14.3455H43.0669V8.77246C38.9959 10.3205 31.4476 11.3526 22.8815 11.3526C14.3155 11.3526 6.76719 10.3205 2.78101 8.77246Z" fill="white"/>
<path d="M2.78101 0V5.57309H43.067V0C38.996 1.54808 31.4477 2.58013 22.8816 2.58013C14.3155 2.58013 6.7672 1.54808 2.78101 0Z" fill="white"/>
</svg>
