<svg width="26" height="26" viewBox="0 0 26 26" fill="none" xmlns="http://www.w3.org/2000/svg">
<g clip-path="url(#clip0_17_457)">
<path d="M5.3555 16.8571C8.88651 22.8382 16.2179 21.6892 19.3845 19.9013L9.67419 3.45337C6.50759 5.24131 1.8245 10.876 5.3555 16.8571Z" fill="#2E1E13"/>
<path d="M19.5125 19.2547C18.1133 20.0447 16.3194 19.9736 14.5046 19.1189C12.6921 18.2653 10.9091 16.6477 9.61335 14.4528C8.31758 12.258 7.77657 9.93908 7.92694 7.97725C8.07751 6.01289 8.91143 4.45794 10.3107 3.66791C11.7099 2.87788 13.5038 2.94907 15.3186 3.80373C17.1311 4.65729 18.9141 6.27493 20.2098 8.4698C21.5056 10.6647 22.0466 12.9835 21.8963 14.9454C21.7457 16.9097 20.9118 18.4647 19.5125 19.2547Z" fill="#9AC941" stroke="#2E1E13"/>
<ellipse rx="3.58102" ry="1.82189" transform="matrix(0.508382 0.861132 0.870784 -0.491665 15.262 11.4516)" fill="#DBEEB8"/>
<path d="M17.6709 15.7686C17.576 15.8188 17.6719 16.1336 17.8852 16.4717C18.0984 16.8099 18.3481 17.0434 18.443 16.9932C18.5379 16.9431 18.442 16.6283 18.2287 16.2901C18.0155 15.9519 17.7657 15.7185 17.6709 15.7686Z" fill="#3A2921"/>
<path d="M11.5174 6.00678C11.4225 6.05694 11.5185 6.37174 11.7317 6.7099C11.9449 7.04807 12.1947 7.28154 12.2896 7.23139C12.3845 7.18123 12.2885 6.86643 12.0753 6.52827C11.8621 6.1901 11.6123 5.95662 11.5174 6.00678Z" fill="#3A2921"/>
<path d="M18.1076 9.64173C17.8851 9.75936 17.7785 9.97169 17.8695 10.116C17.9605 10.2603 18.2146 10.2819 18.4371 10.1642C18.6597 10.0466 18.7663 9.83429 18.6753 9.69C18.5843 9.54571 18.3302 9.5241 18.1076 9.64173Z" fill="#3A2921"/>
<path d="M11.6781 13.0414C11.4555 13.159 11.3489 13.3713 11.4399 13.5156C11.5309 13.6599 11.785 13.6815 12.0076 13.5639C12.2301 13.4463 12.3367 13.2339 12.2458 13.0896C12.1548 12.9454 11.9006 12.9237 11.6781 13.0414Z" fill="#3A2921"/>
<path d="M14.9443 6.72436C14.917 7.03538 15.0011 7.34883 15.1322 7.42448C15.2633 7.50013 15.3917 7.30933 15.419 6.99831C15.4463 6.68729 15.3622 6.37384 15.2311 6.29819C15.1 6.22254 14.9717 6.41334 14.9443 6.72436Z" fill="#3A2921"/>
<path d="M10.0005 9.20351C10.0134 9.34785 10.2724 9.5593 10.5791 9.67579C10.8857 9.79229 11.1239 9.76971 11.111 9.62537C11.0982 9.48102 10.8391 9.26957 10.5325 9.15307C10.2258 9.03658 9.98763 9.05916 10.0005 9.20351Z" fill="#3A2921"/>
<path d="M18.889 13.3553C18.9018 13.4997 19.1609 13.7111 19.4675 13.8276C19.7742 13.9441 20.0124 13.9215 19.9995 13.7772C19.9866 13.6328 19.7276 13.4214 19.4209 13.3049C19.1143 13.1884 18.8761 13.211 18.889 13.3553Z" fill="#3A2921"/>
<path d="M14.2599 15.5753C14.2326 15.8863 14.3167 16.1998 14.4478 16.2754C14.5788 16.3511 14.7072 16.1603 14.7345 15.8493C14.7618 15.5382 14.6777 15.2248 14.5467 15.1491C14.4156 15.0735 14.2872 15.2643 14.2599 15.5753Z" fill="#3A2921"/>
</g>
<defs>
<clipPath id="clip0_17_457">
<rect width="25" height="25.0811" fill="white" transform="translate(0.500366)"/>
</clipPath>
</defs>
</svg>
